<?xml version="1.0" encoding="UTF-8" standalone="no"?>
<!-- Created with Inkscape (http://www.inkscape.org/) -->

<svg
   width="260.96"
   height="300"
   version="1.1"
   viewBox="0 0 260.96 300"
   id="svg63"
   xmlns:xlink="http://www.w3.org/1999/xlink"
   xmlns="http://www.w3.org/2000/svg"
   xmlns:svg="http://www.w3.org/2000/svg">
  <defs
     id="defs30">
    <linearGradient
       id="linearGradient34313">
      <stop
         stop-color="#949494"
         offset="0"
         id="stop1" />
      <stop
         stop-color="#5b5b5b"
         offset=".19775"
         id="stop2" />
      <stop
         stop-color="#8d8d8d"
         offset=".3963"
         id="stop3" />
      <stop
         stop-color="#848484"
         offset=".6"
         id="stop4" />
      <stop
         stop-color="#9c9c9c"
         offset=".8"
         id="stop5" />
      <stop
         stop-color="#a0a0a0"
         offset="1"
         id="stop6" />
    </linearGradient>
    <linearGradient
       id="linearGradient28435">
      <stop
         stop-color="#8c8c8c"
         offset="0"
         id="stop7" />
      <stop
         stop-color="#808080"
         offset=".2"
         id="stop8" />
      <stop
         stop-color="#5a5a5a"
         offset=".4"
         id="stop9" />
      <stop
         stop-color="#a7a7a7"
         offset=".6"
         id="stop10" />
      <stop
         stop-color="#626262"
         offset=".8"
         id="stop11" />
      <stop
         stop-color="#cdcdcd"
         offset="1"
         id="stop12" />
    </linearGradient>
    <linearGradient
       id="linearGradient27658"
       x1="29.185"
       x2="53.409"
       y1="38.913"
       y2="38.913"
       gradientTransform="matrix(6.3749 0 0 6.7676 -134.26 -142.51)"
       gradientUnits="userSpaceOnUse">
      <stop
         stop-color="#676767"
         offset="0"
         id="stop13" />
      <stop
         stop-color="#949494"
         offset=".20418"
         id="stop14" />
      <stop
         stop-color="#737373"
         offset=".40273"
         id="stop15" />
      <stop
         stop-color="#a7a7a7"
         offset=".59847"
         id="stop16" />
      <stop
         stop-color="#c0c0c0"
         offset=".79602"
         id="stop17" />
      <stop
         stop-color="#c8c8c8"
         offset="1"
         id="stop18" />
    </linearGradient>
    <linearGradient
       id="linearGradient27761"
       x1="30.45"
       x2="52.339"
       y1="25.877"
       y2="25.877"
       gradientTransform="matrix(6.3749 0 0 6.7676 -134.26 -142.51)"
       gradientUnits="userSpaceOnUse">
      <stop
         stop-color="#5f5f5f"
         offset="0"
         id="stop19" />
      <stop
         stop-color="#808080"
         offset=".20418"
         id="stop20" />
      <stop
         stop-color="#737373"
         offset=".4"
         id="stop21" />
      <stop
         stop-color="#787878"
         offset=".59847"
         id="stop22" />
      <stop
         stop-color="#bdbdbd"
         offset=".79924"
         id="stop23" />
      <stop
         stop-color="#848484"
         offset="1"
         id="stop24" />
    </linearGradient>
    <linearGradient
       id="linearGradient28437"
       x1="70.977"
       x2="70.977"
       y1="-30.953"
       y2="-49.775"
       gradientTransform="matrix(6.3749 0 0 6.3749 -134.65 128.68)"
       gradientUnits="userSpaceOnUse"
       xlink:href="#linearGradient28435" />
    <linearGradient
       id="linearGradient34315"
       x1="52.496"
       x2="52.269"
       y1="41.158"
       y2="53.063"
       gradientTransform="matrix(6.3749 0 0 6.3749 -128.68 -134.65)"
       gradientUnits="userSpaceOnUse"
       xlink:href="#linearGradient34313" />
    <linearGradient
       id="linearGradient40247"
       x1="70.977"
       x2="70.977"
       y1="-30.953"
       y2="-49.775"
       gradientTransform="matrix(6.3749 0 0 4.9931 -324.62 467.59)"
       gradientUnits="userSpaceOnUse"
       xlink:href="#linearGradient28435" />
    <linearGradient
       id="linearGradient41703"
       x1="52.496"
       x2="52.269"
       y1="41.158"
       y2="53.063"
       gradientTransform="matrix(4.2205 0 0 3.4584 -92.453 103.97)"
       gradientUnits="userSpaceOnUse"
       xlink:href="#linearGradient34313" />
    <linearGradient
       id="linearGradient44613"
       x1="70.977"
       x2="70.977"
       y1="-30.953"
       y2="-49.775"
       gradientTransform="matrix(6.3749 0 0 .69125 -247.41 -191.16)"
       gradientUnits="userSpaceOnUse"
       xlink:href="#linearGradient28435" />
    <linearGradient
       id="linearGradient44617"
       x1="70.977"
       x2="70.977"
       y1="-30.953"
       y2="-49.775"
       gradientTransform="matrix(6.3749 0 0 .84487 -247.41 -154.62)"
       gradientUnits="userSpaceOnUse"
       xlink:href="#linearGradient28435" />
    <linearGradient
       id="linearGradient47525"
       x1="70.977"
       x2="70.977"
       y1="-30.953"
       y2="-49.775"
       gradientTransform="matrix(6.3766 0 0 .68625 -610.04 -223.91)"
       gradientUnits="userSpaceOnUse"
       xlink:href="#linearGradient28435" />
    <linearGradient
       id="linearGradient80317"
       x1="71.771"
       x2="93.541"
       y1="65.648"
       y2="48.301"
       gradientTransform="matrix(6.3749 0 0 6.3749 -293.48 -140.43)"
       gradientUnits="userSpaceOnUse">
      <stop
         stop-color="#8d8d8d"
         offset="0"
         id="stop25" />
      <stop
         stop-color="#989898"
         offset=".2"
         id="stop26" />
      <stop
         stop-color="#4a4a4a"
         offset=".4"
         id="stop27" />
      <stop
         stop-color="#828282"
         offset=".6"
         id="stop28" />
      <stop
         stop-color="#4b4b4b"
         offset=".8"
         id="stop29" />
      <stop
         stop-color="#cacaca"
         offset="1"
         id="stop30" />
    </linearGradient>
    <linearGradient
       id="linearGradient82507"
       x1="70.977"
       x2="70.977"
       y1="-30.953"
       y2="-49.775"
       gradientTransform="matrix(6.3749 0 0 2.4206 -286.24 -182.71)"
       gradientUnits="userSpaceOnUse"
       xlink:href="#linearGradient28435" />
  </defs>
  <g
     id="diffusion-pump"
     transform="translate(-47.094 -25.052)">
    <path
       d="m269.02 166.23-0.0791 59.159c-3.3076 14.246-4.4084 15.197-17.773 16.538h-87.836v36.142l104.84-2.1018c17.219-7.6124 21.275-12.321 28.341-23.933 0 0 4.4379-7.8242 5.4588-20.662l0.0857-65.01z"
       fill="url(#linearGradient80317)"
       style="paint-order:markers stroke fill"
       id="path30" />
    <g
       fill="#ccc"
       stroke="#000"
       stroke-linecap="square"
       id="g33">
      <rect
         transform="matrix(.0063392 .99998 -.99835 -.05745 0 0)"
         x="230.02"
         y="-199.23"
         width="39.122"
         height="2.847"
         stroke-width="1.1359"
         style="paint-order:markers stroke fill"
         id="rect30" />
      <rect
         transform="matrix(.0049456 .99999 -.99729 -.073562 0 0)"
         x="217.33"
         y="-191.81"
         width="48.363"
         height="2.7486"
         stroke-width="1.2409"
         style="paint-order:markers stroke fill"
         id="rect31" />
      <rect
         transform="matrix(.0072477 .99997 -.99874 -.050268 0 0)"
         x="230.22"
         y="-208.37"
         width="34.866"
         height="2.8998"
         stroke-width="1.0822"
         style="paint-order:markers stroke fill"
         id="rect32" />
      <rect
         transform="matrix(.0059616 .99998 -.99813 -.061077 0 0)"
         x="226.63"
         y="-219.65"
         width="41.255"
         height="2.824"
         stroke-width="1.1617"
         style="paint-order:markers stroke fill"
         id="rect33" />
    </g>
    <g
       id="g37">
      <g
         id="g35">
        <path
           d="m214.65 211.57-2.1684 26.744-2.8912 18.793-9.3964 33.972-13.01 28.189-0.7228 4.3368h13.01l12.288-35.417 7.9508-27.467 3.614-50.596z"
           fill="#808080"
           stroke="#000"
           stroke-linecap="square"
           stroke-width="1.9161"
           style="paint-order:markers stroke fill"
           id="path33" />
        <rect
           transform="rotate(90)"
           x="202.18"
           y="-225.49"
           width="10.119"
           height="13.01"
           fill="url(#linearGradient44613)"
           style="paint-order:markers stroke fill"
           id="rect34" />
        <rect
           transform="rotate(90)"
           x="202.18"
           y="-196.58"
           width="10.119"
           height="15.902"
           fill="url(#linearGradient44617)"
           style="paint-order:markers stroke fill"
           id="rect35" />
      </g>
      <path
         d="m72.393 32.054v20.462a23.888 72.244 0 0 0-20 71.242 23.888 72.244 0 0 0 20 71.242v128.98h113.33v-129.25a23.888 72.244 0 0 0 19.443-70.963 23.888 72.244 0 0 0-19.443-70.977v-20.728z"
         fill="url(#linearGradient27658)"
         style="paint-order:markers stroke fill"
         id="path35" />
      <rect
         x="59.401"
         y="26.214"
         width="139.2"
         height="14.124"
         fill="url(#linearGradient27761)"
         stroke="#000"
         stroke-linecap="square"
         stroke-width="2.3236"
         style="paint-order:markers stroke fill"
         id="rect36" />
      <path
         d="m156.1 260.72h15.179l15.179-6.5052 7.228-13.733 1.4456-14.456v-15.179h-6.5052v15.179l-0.72282 12.288-4.3368 9.3964-11.565 6.5052-16.624 0.7228z"
         fill="#808080"
         stroke="#000"
         stroke-linecap="square"
         stroke-width="1.9161"
         style="paint-order:markers stroke fill"
         id="path36" />
      <rect
         transform="matrix(-.99943 -.033848 .017916 -.99984 0 0)"
         x="-160.34"
         y="-257.99"
         width="10.122"
         height="12.916"
         fill="url(#linearGradient47525)"
         style="paint-order:markers stroke fill"
         id="rect37" />
    </g>
    <g
       fill="#ccc"
       stroke="#000"
       stroke-linecap="square"
       id="g49">
      <rect
         transform="matrix(.99262 -.12129 .039716 .99921 0 0)"
         x="59.404"
         y="67.878"
         width="76.07"
         height="2.5728"
         stroke-width="1.5057"
         style="paint-order:markers stroke fill"
         id="rect38" />
      <rect
         transform="matrix(.99813 -.061189 .07898 .99688 0 0)"
         x="49.739"
         y="75.839"
         width="143.71"
         height="2.4576"
         stroke-width="2.0227"
         style="paint-order:markers stroke fill"
         id="rect39" />
      <rect
         transform="matrix(.99838 -.056936 .084859 .99639 0 0)"
         x="43.847"
         y="89.001"
         width="153.53"
         height="2.4443"
         stroke-width="2.085"
         style="paint-order:markers stroke fill"
         id="rect40" />
      <rect
         transform="matrix(.99847 -.055245 .087445 .99617 0 0)"
         x="39.804"
         y="104.28"
         width="157.83"
         height="2.4387"
         stroke-width="2.1116"
         style="paint-order:markers stroke fill"
         id="rect41" />
      <rect
         transform="matrix(.99851 -.054549 .088556 .99607 0 0)"
         x="37.813"
         y="118.47"
         width="159.67"
         height="2.4363"
         stroke-width="2.1228"
         style="paint-order:markers stroke fill"
         id="rect42" />
      <rect
         transform="matrix(.9985 -.054779 .088185 .9961 0 0)"
         x="36.541"
         y="133.35"
         width="159.05"
         height="2.4371"
         stroke-width="2.1191"
         style="paint-order:markers stroke fill"
         id="rect43" />
      <rect
         transform="matrix(.99845 -.055719 .086705 .99623 0 0)"
         x="36.621"
         y="148.94"
         width="156.6"
         height="2.4403"
         stroke-width="2.104"
         style="paint-order:markers stroke fill"
         id="rect44" />
      <rect
         transform="matrix(.99829 -.058464 .082649 .99658 0 0)"
         x="40.865"
         y="164.8"
         width="149.84"
         height="2.4492"
         stroke-width="2.0619"
         style="paint-order:markers stroke fill"
         id="rect45" />
      <rect
         transform="matrix(.99794 -.064162 .075327 .99716 0 0)"
         x="48.945"
         y="180.41"
         width="137.57"
         height="2.4664"
         stroke-width="1.9826"
         style="paint-order:markers stroke fill"
         id="rect46" />
      <rect
         transform="matrix(.99748 -.070936 .068137 .99768 0 0)"
         x="55.011"
         y="196.75"
         width="125.41"
         height="2.4845"
         stroke-width="1.8999"
         style="paint-order:markers stroke fill"
         id="rect47" />
      <rect
         transform="matrix(.99712 -.075794 .063767 .99796 0 0)"
         x="57.153"
         y="210.71"
         width="117.95"
         height="2.496"
         stroke-width="1.8468"
         style="paint-order:markers stroke fill"
         id="rect48" />
      <rect
         transform="matrix(.99725 -.074129 .0652 .99787 0 0)"
         x="54.609"
         y="225.98"
         width="120.41"
         height="2.4921"
         stroke-width="1.8644"
         style="paint-order:markers stroke fill"
         id="rect49" />
    </g>
    <g
       id="g52">
      <rect
         transform="rotate(90)"
         x="314.93"
         y="-187.91"
         width="10.119"
         height="119.99"
         fill="url(#linearGradient28437)"
         style="paint-order:markers stroke fill"
         id="rect50" />
      <rect
         x="174.17"
         y="127"
         width="57.824"
         height="75.894"
         fill="url(#linearGradient34315)"
         stroke="#000"
         stroke-linecap="square"
         stroke-width="1.738"
         style="paint-order:markers stroke fill"
         id="rect51" />
      <rect
         x="203.38"
         y="126.57"
         width="1.5814"
         height="77.476"
         stroke="#000"
         stroke-linecap="square"
         stroke-width="1.0574"
         style="paint-order:markers stroke fill"
         id="rect52" />
    </g>
    <g
       fill="none"
       stroke="#000"
       stroke-linecap="square"
       id="g53">
      <ellipse
         cx="188.99"
         cy="163.51"
         rx="11.57"
         ry="13.016"
         stroke-width="1.1829"
         style="paint-order:markers stroke fill"
         id="ellipse52" />
      <circle
         cx="189.71"
         cy="136.76"
         r="6.8666"
         stroke-width="1.9161"
         style="paint-order:markers stroke fill"
         id="circle52" />
      <circle
         cx="189.71"
         cy="189.53"
         r="6.8666"
         stroke-width="1.9161"
         style="paint-order:markers stroke fill"
         id="circle53" />
    </g>
    <rect
       transform="matrix(.99999 .0048338 -.0078794 .99997 0 0)"
       x="124.96"
       y="219.62"
       width="10.119"
       height="93.978"
       fill="url(#linearGradient40247)"
       style="paint-order:markers stroke fill"
       id="rect53" />
    <g
       stroke="#000"
       stroke-linecap="square"
       id="g56">
      <rect
         x="108.05"
         y="245.92"
         width="38.282"
         height="41.173"
         fill="url(#linearGradient41703)"
         stroke-width="1.0416"
         style="paint-order:markers stroke fill"
         id="rect54" />
      <circle
         cx="127.55"
         cy="267.59"
         r="10.481"
         fill="none"
         stroke-width="1.9161"
         style="paint-order:markers stroke fill"
         id="circle54" />
      <path
         transform="matrix(1.6543 .17176 -.16591 1.8887 91.316 192.83)"
         d="m18.255 65.875-3.7283 0.33499-2.1543-3.0613 1.5741-3.3963 3.7283-0.33499 2.1543 3.0613z"
         fill="#808080"
         stroke-width=".30057"
         style="paint-order:markers stroke fill"
         id="path54" />
      <path
         transform="matrix(1.6543 .17176 -.16591 1.8887 130.35 192.83)"
         d="m18.255 65.875-3.7283 0.33499-2.1543-3.0613 1.5741-3.3963 3.7283-0.33499 2.1543 3.0613z"
         fill="#808080"
         stroke-width=".30057"
         style="paint-order:markers stroke fill"
         id="path55" />
      <ellipse
         cx="128.27"
         cy="232.53"
         rx="3.2526"
         ry="2.8912"
         fill="none"
         stroke-width="1.9161"
         style="paint-order:markers stroke fill"
         id="ellipse55" />
      <ellipse
         cx="128.27"
         cy="301.92"
         rx="3.2526"
         ry="2.8912"
         fill="none"
         stroke-width="1.9161"
         style="paint-order:markers stroke fill"
         id="ellipse56" />
    </g>
    <g
       id="g57">
      <rect
         x="115.15"
         y="48.463"
         width="25.533"
         height="11.8"
         fill="#808080"
         stroke="#000"
         stroke-linecap="square"
         stroke-width=".95859"
         style="paint-order:markers stroke fill"
         id="rect56" />
      <circle
         cx="127.55"
         cy="54.362"
         r="3.9754"
         fill="#808080"
         stroke="#000"
         stroke-linecap="square"
         stroke-width="1.9161"
         style="paint-order:markers stroke fill"
         id="circle56" />
      <rect
         transform="matrix(.029585 .99956 -1 -.0021457 0 0)"
         x="163.34"
         y="-302.92"
         width="10.119"
         height="45.559"
         fill="url(#linearGradient82507)"
         style="paint-order:markers stroke fill"
         id="rect57" />
    </g>
    <g
       fill="#ccc"
       stroke="#000"
       stroke-linecap="square"
       id="g62">
      <rect
         transform="matrix(.0062099 .99998 -.99828 -.058643 0 0)"
         x="227.36"
         y="-228.25"
         width="39.834"
         height="2.8399"
         stroke-width="1.1448"
         style="paint-order:markers stroke fill"
         id="rect58" />
      <g
         stroke-width="1.2383"
         id="g61">
        <rect
           transform="matrix(-.99978 .020813 .043668 -.99905 0 0)"
           x="-314.12"
           y="-210.38"
           width="39.731"
           height="3.3317"
           style="paint-order:markers stroke fill"
           id="rect59" />
        <rect
           transform="matrix(-.99978 .020813 .043668 -.99905 0 0)"
           x="-314.49"
           y="-202.43"
           width="39.731"
           height="3.3317"
           style="paint-order:markers stroke fill"
           id="rect60" />
        <rect
           transform="matrix(-.99978 .020813 .043668 -.99905 0 0)"
           x="-314.53"
           y="-219.8"
           width="39.731"
           height="3.3317"
           style="paint-order:markers stroke fill"
           id="rect61" />
      </g>
      <rect
         transform="matrix(-.99891 .046693 .019463 -.99981 0 0)"
         x="-288.35"
         y="-199.18"
         width="19.217"
         height="3.6125"
         stroke-width=".89678"
         style="paint-order:markers stroke fill"
         id="rect62" />
    </g>
    <rect
       x="277.63"
       y="179.87"
       width="17.152"
       height="8.4781"
       fill="#808080"
       stroke="#000"
       stroke-linecap="square"
       stroke-width=".66597"
       style="paint-order:markers stroke fill"
       id="rect63" />
  </g>
</svg>
