<svg xmlns="http://www.w3.org/2000/svg" xmlns:xlink="http://www.w3.org/1999/xlink" xml:space="preserve" width="297mm" height="210mm" viewBox="0 0 1122.52 793.701"><defs><linearGradient id="j"><stop offset="0" style="stop-color:#b8b8b8;stop-opacity:1"/><stop offset=".5" style="stop-color:#cacaca;stop-opacity:1"/><stop offset="1" style="stop-color:#e3e3e3;stop-opacity:1"/></linearGradient><linearGradient id="i"><stop offset="0" style="stop-color:#a5a5a5;stop-opacity:1"/><stop offset=".5" style="stop-color:#e5e5e5;stop-opacity:1"/><stop offset=".75" style="stop-color:#bbb;stop-opacity:1"/><stop offset=".875" style="stop-color:#d2d2d2;stop-opacity:1"/><stop offset="1" style="stop-color:#b4b4b4;stop-opacity:1"/></linearGradient><linearGradient id="h"><stop offset="0" style="stop-color:#9d9d9d;stop-opacity:1"/><stop offset=".5" style="stop-color:#dadada;stop-opacity:1"/><stop offset=".75" style="stop-color:#9a9a9a;stop-opacity:1"/><stop offset=".875" style="stop-color:#dadada;stop-opacity:1"/><stop offset="1" style="stop-color:#a4a4a4;stop-opacity:1"/></linearGradient><linearGradient id="e"><stop offset="0" style="stop-color:#8c8c8c;stop-opacity:1"/><stop offset=".303" style="stop-color:#d6d6d6;stop-opacity:1"/><stop offset=".545" style="stop-color:#797979;stop-opacity:1"/><stop offset=".782" style="stop-color:#858585;stop-opacity:1"/><stop offset="1" style="stop-color:#cdcdcd;stop-opacity:1"/></linearGradient><linearGradient id="d"><stop offset="0" style="stop-color:#d2d2d2;stop-opacity:1"/><stop offset=".25" style="stop-color:#d2d2d2;stop-opacity:1"/><stop offset=".5" style="stop-color:#848484;stop-opacity:1"/><stop offset=".75" style="stop-color:#a7a7a7;stop-opacity:1"/><stop offset="1" style="stop-color:#dbdbdb;stop-opacity:1"/></linearGradient><linearGradient id="g"><stop offset="0" style="stop-color:#5b5b5b;stop-opacity:1"/><stop offset=".25" style="stop-color:#dcdcdc;stop-opacity:1"/><stop offset=".375" style="stop-color:#878787;stop-opacity:1"/><stop offset=".5" style="stop-color:#9d9d9d;stop-opacity:1"/><stop offset="1" style="stop-color:#989898;stop-opacity:1"/></linearGradient><linearGradient id="f"><stop offset="0" style="stop-color:#949494;stop-opacity:1"/><stop offset=".303" style="stop-color:#d9d9d9;stop-opacity:1"/><stop offset=".545" style="stop-color:#7e7e7e;stop-opacity:1"/><stop offset=".782" style="stop-color:#818181;stop-opacity:1"/><stop offset="1" style="stop-color:#f6f6f6;stop-opacity:1"/></linearGradient><linearGradient id="c"><stop offset="0" style="stop-color:#9a9a9a;stop-opacity:1"/><stop offset=".5" style="stop-color:#dedede;stop-opacity:1"/><stop offset=".75" style="stop-color:#acacac;stop-opacity:1"/><stop offset=".875" style="stop-color:#bbb;stop-opacity:1"/><stop offset="1" style="stop-color:#7a7a7a;stop-opacity:1"/></linearGradient><linearGradient id="b"><stop offset="0" style="stop-color:#545454;stop-opacity:1"/><stop offset=".5" style="stop-color:#acacac;stop-opacity:1"/><stop offset="1" style="stop-color:#8d8d8d;stop-opacity:1"/></linearGradient><linearGradient id="a"><stop offset="0" style="stop-color:#b9b9b9;stop-opacity:1"/><stop offset=".359" style="stop-color:#d8d8d8;stop-opacity:1"/><stop offset=".631" style="stop-color:#dfdfdf;stop-opacity:1"/><stop offset=".899" style="stop-color:#ddd;stop-opacity:1"/><stop offset="1" style="stop-color:#c3c3c3;stop-opacity:1"/></linearGradient><linearGradient xlink:href="#a" id="n" x1="-156.426" x2="523.763" y1="648.004" y2="649.321" gradientTransform="matrix(.90853 0 0 .91005 7.026 51.79)" gradientUnits="userSpaceOnUse"/><linearGradient xlink:href="#b" id="ag" x1="7.578" x2="86.564" y1="706.767" y2="706.767" gradientTransform="translate(326.415 -153.185)" gradientUnits="userSpaceOnUse"/><linearGradient xlink:href="#c" id="af" x1="61.883" x2="191.952" y1="682.513" y2="682.513" gradientTransform="translate(39.905 -27.161)" gradientUnits="userSpaceOnUse"/><linearGradient xlink:href="#d" id="ae" x1="592.404" x2="678.129" y1="234.191" y2="234.191" gradientTransform="matrix(1.02502 0 0 1.02484 16.31 -170.542)" gradientUnits="userSpaceOnUse"/><linearGradient xlink:href="#e" id="ad" x1="625.221" x2="731.154" y1="124.725" y2="123.95" gradientTransform="translate(-2.847 -17.178)" gradientUnits="userSpaceOnUse"/><linearGradient xlink:href="#f" id="ac" x1="625.221" x2="731.154" y1="124.725" y2="123.95" gradientTransform="translate(-5.034 -33.01)" gradientUnits="userSpaceOnUse"/><linearGradient xlink:href="#f" id="ab" x1="625.221" x2="731.154" y1="124.725" y2="123.95" gradientTransform="translate(-8.02 -48.622)" gradientUnits="userSpaceOnUse"/><linearGradient xlink:href="#f" id="Y" x1="625.221" x2="731.154" y1="124.725" y2="123.95" gradientTransform="translate(-8.02 -48.622)" gradientUnits="userSpaceOnUse"/><linearGradient xlink:href="#f" id="Z" x1="625.221" x2="731.154" y1="124.725" y2="123.95" gradientTransform="translate(-5.034 -33.01)" gradientUnits="userSpaceOnUse"/><linearGradient xlink:href="#f" id="aa" x1="625.221" x2="731.154" y1="124.725" y2="123.95" gradientTransform="translate(-2.847 -17.178)" gradientUnits="userSpaceOnUse"/><linearGradient xlink:href="#f" id="V" x1="625.221" x2="731.154" y1="124.725" y2="123.95" gradientTransform="translate(-8.02 -48.622)" gradientUnits="userSpaceOnUse"/><linearGradient xlink:href="#f" id="W" x1="625.221" x2="731.154" y1="124.725" y2="123.95" gradientTransform="translate(-5.034 -33.01)" gradientUnits="userSpaceOnUse"/><linearGradient xlink:href="#f" id="X" x1="625.221" x2="731.154" y1="124.725" y2="123.95" gradientTransform="translate(-2.847 -17.178)" gradientUnits="userSpaceOnUse"/><linearGradient xlink:href="#f" id="S" x1="625.221" x2="731.154" y1="124.725" y2="123.95" gradientTransform="translate(-8.02 -48.622)" gradientUnits="userSpaceOnUse"/><linearGradient xlink:href="#f" id="T" x1="625.221" x2="731.154" y1="124.725" y2="123.95" gradientTransform="translate(-4.411 -33.339)" gradientUnits="userSpaceOnUse"/><linearGradient xlink:href="#f" id="U" x1="625.221" x2="731.154" y1="124.725" y2="123.95" gradientTransform="translate(-1.156 -17.908)" gradientUnits="userSpaceOnUse"/><linearGradient xlink:href="#f" id="P" x1="625.221" x2="731.154" y1="124.725" y2="123.95" gradientTransform="translate(-8.02 -48.622)" gradientUnits="userSpaceOnUse"/><linearGradient xlink:href="#f" id="Q" x1="625.221" x2="731.154" y1="124.725" y2="123.95" gradientTransform="translate(-5.034 -33.01)" gradientUnits="userSpaceOnUse"/><linearGradient xlink:href="#f" id="R" x1="625.221" x2="731.154" y1="124.725" y2="123.95" gradientTransform="translate(-2.847 -17.178)" gradientUnits="userSpaceOnUse"/><linearGradient xlink:href="#f" id="M" x1="625.221" x2="731.154" y1="124.725" y2="123.95" gradientTransform="translate(-9.337 -48.767)" gradientUnits="userSpaceOnUse"/><linearGradient xlink:href="#f" id="N" x1="625.221" x2="731.154" y1="124.725" y2="123.95" gradientTransform="translate(-6.257 -32.392)" gradientUnits="userSpaceOnUse"/><linearGradient xlink:href="#f" id="O" x1="625.221" x2="731.154" y1="124.725" y2="123.95" gradientTransform="translate(-2.847 -17.178)" gradientUnits="userSpaceOnUse"/><linearGradient xlink:href="#f" id="J" x1="625.221" x2="731.154" y1="124.725" y2="123.95" gradientTransform="translate(-8.02 -48.622)" gradientUnits="userSpaceOnUse"/><linearGradient xlink:href="#f" id="K" x1="625.221" x2="731.154" y1="124.725" y2="123.95" gradientTransform="translate(-5.034 -33.01)" gradientUnits="userSpaceOnUse"/><linearGradient xlink:href="#f" id="L" x1="625.221" x2="731.154" y1="124.725" y2="123.95" gradientTransform="translate(-2.847 -17.178)" gradientUnits="userSpaceOnUse"/><linearGradient xlink:href="#f" id="G" x1="625.221" x2="731.154" y1="124.725" y2="123.95" gradientTransform="translate(-7.64 -48.354)" gradientUnits="userSpaceOnUse"/><linearGradient xlink:href="#f" id="H" x1="625.221" x2="731.154" y1="124.725" y2="123.95" gradientTransform="translate(-5.034 -33.01)" gradientUnits="userSpaceOnUse"/><linearGradient xlink:href="#f" id="I" x1="625.221" x2="731.154" y1="124.725" y2="123.95" gradientTransform="translate(-2.847 -17.178)" gradientUnits="userSpaceOnUse"/><linearGradient xlink:href="#f" id="D" x1="625.221" x2="731.154" y1="124.725" y2="123.95" gradientTransform="translate(-8.02 -48.622)" gradientUnits="userSpaceOnUse"/><linearGradient xlink:href="#f" id="E" x1="625.221" x2="731.154" y1="124.725" y2="123.95" gradientTransform="translate(-4.783 -33.376)" gradientUnits="userSpaceOnUse"/><linearGradient xlink:href="#f" id="F" x1="625.221" x2="731.154" y1="124.725" y2="123.95" gradientTransform="translate(-2.847 -17.178)" gradientUnits="userSpaceOnUse"/><linearGradient xlink:href="#f" id="A" x1="625.221" x2="731.154" y1="124.725" y2="123.95" gradientTransform="translate(-8.02 -48.622)" gradientUnits="userSpaceOnUse"/><linearGradient xlink:href="#f" id="B" x1="625.221" x2="731.154" y1="124.725" y2="123.95" gradientTransform="translate(-5.034 -33.01)" gradientUnits="userSpaceOnUse"/><linearGradient xlink:href="#f" id="C" x1="625.221" x2="731.154" y1="124.725" y2="123.95" gradientTransform="translate(-2.847 -17.178)" gradientUnits="userSpaceOnUse"/><linearGradient xlink:href="#f" id="x" x1="625.221" x2="731.154" y1="124.725" y2="123.95" gradientTransform="translate(-7.216 -48.053)" gradientUnits="userSpaceOnUse"/><linearGradient xlink:href="#f" id="y" x1="625.221" x2="731.154" y1="124.725" y2="123.95" gradientTransform="translate(-5.034 -33.01)" gradientUnits="userSpaceOnUse"/><linearGradient xlink:href="#f" id="z" x1="625.221" x2="731.154" y1="124.725" y2="123.95" gradientTransform="translate(-2.847 -17.178)" gradientUnits="userSpaceOnUse"/><linearGradient xlink:href="#f" id="u" x1="625.221" x2="731.154" y1="124.725" y2="123.95" gradientTransform="translate(-6.756 -47.662)" gradientUnits="userSpaceOnUse"/><linearGradient xlink:href="#f" id="v" x1="625.221" x2="731.154" y1="124.725" y2="123.95" gradientTransform="translate(-4.943 -32.56)" gradientUnits="userSpaceOnUse"/><linearGradient xlink:href="#f" id="w" x1="625.221" x2="731.154" y1="124.725" y2="123.95" gradientTransform="translate(-3.024 -16.919)" gradientUnits="userSpaceOnUse"/><linearGradient xlink:href="#f" id="r" x1="625.221" x2="731.154" y1="124.725" y2="123.95" gradientTransform="translate(-7.275 -48.719)" gradientUnits="userSpaceOnUse"/><linearGradient xlink:href="#f" id="s" x1="625.221" x2="731.154" y1="124.725" y2="123.95" gradientTransform="translate(-5.285 -33.464)" gradientUnits="userSpaceOnUse"/><linearGradient xlink:href="#f" id="t" x1="625.221" x2="731.154" y1="124.725" y2="123.95" gradientTransform="translate(-2.847 -17.178)" gradientUnits="userSpaceOnUse"/><linearGradient xlink:href="#f" id="o" x1="625.221" x2="731.154" y1="124.725" y2="123.95" gradientTransform="matrix(.96653 0 0 .97635 16.452 -28.683)" gradientUnits="userSpaceOnUse"/><linearGradient xlink:href="#f" id="p" x1="625.221" x2="731.154" y1="124.725" y2="123.95" gradientTransform="matrix(.9916 0 0 .98295 -.99 -35.104)" gradientUnits="userSpaceOnUse"/><linearGradient xlink:href="#f" id="q" x1="625.221" x2="731.154" y1="124.725" y2="123.95" gradientTransform="translate(-4.113 -16.97)" gradientUnits="userSpaceOnUse"/><linearGradient xlink:href="#h" id="m" x1="638.148" x2="712.386" y1="-552.184" y2="-552.184" gradientTransform="matrix(1.07263 0 0 1.07502 -40.801 31.445)" gradientUnits="userSpaceOnUse"/><linearGradient xlink:href="#i" id="l" x1="775.97" x2="875.918" y1="-304.424" y2="-304.424" gradientTransform="matrix(1.0577 0 0 .95041 -170.649 -304.925)" gradientUnits="userSpaceOnUse"/><linearGradient xlink:href="#j" id="k" x1="776.178" x2="879.252" y1="-306.335" y2="-306.335" gradientUnits="userSpaceOnUse"/></defs><g transform="matrix(1.16085 0 0 .99996 -161.728 23.772)"><ellipse cx="827.715" cy="-306.335" rx="51.537" ry="53.774" style="fill:url(#k);fill-rule:evenodd;stroke:none;stroke-width:2.90701;stroke-linejoin:bevel;stroke-dasharray:none;stroke-opacity:1" transform="matrix(.87737 .47981 -.36047 .93277 0 0)"/><ellipse cx="702.954" cy="-594.253" rx="52.858" ry="49.547" style="fill:url(#l);fill-rule:evenodd;stroke:none;stroke-width:2.82596;stroke-linejoin:bevel;stroke-dasharray:none;stroke-opacity:1" transform="matrix(.61882 .78553 -.67224 .74033 0 0)"/><rect width="79.63" height="98.159" x="643.699" y="-611.243" ry="39.9" style="fill:url(#m);fill-rule:evenodd;stroke:none;stroke-width:.123297;stroke-linejoin:bevel" transform="matrix(.63047 .77622 -.69478 .71922 0 0)"/></g><rect width="699.647" height="81.956" x="-216.802" y="601.728" ry="40.978" style="fill:url(#n);fill-opacity:1;fill-rule:evenodd;stroke:#b2b2b2;stroke-width:.0725251;stroke-linejoin:bevel" transform="rotate(-43.455) skewX(-.026)"/><g style="stroke-width:.37795277;stroke-dasharray:none"><g style="stroke:#484848;stroke-opacity:1;stroke-width:.38261151;stroke-dasharray:none" transform="matrix(.97564 0 0 1.00016 456.28 -424.478)"><ellipse cx="673.586" cy="93.092" rx="52.291" ry="47.493" style="fill:url(#o);fill-opacity:1;fill-rule:evenodd;stroke:#484848;stroke-width:.38312274;stroke-linejoin:bevel;stroke-dasharray:none;stroke-opacity:1" transform="matrix(.6008 .7994 -.84112 .54085 0 0)"/><ellipse cx="673.192" cy="87.493" rx="53.648" ry="47.814" style="fill:url(#p);fill-opacity:1;fill-rule:evenodd;stroke:#484848;stroke-width:.3826586;stroke-linejoin:bevel;stroke-dasharray:none;stroke-opacity:1" transform="matrix(.5799 .81468 -.82735 .5617 0 0)"/><ellipse cx="675.777" cy="107.754" rx="54.102" ry="48.643" style="fill:url(#q);fill-opacity:1;fill-rule:evenodd;stroke:#484848;stroke-width:.38281219;stroke-linejoin:bevel;stroke-dasharray:none;stroke-opacity:1" transform="matrix(.5896 .8077 -.83384 .55201 0 0)"/></g><g style="stroke:#484848;stroke-opacity:1;stroke-width:.38083639;stroke-dasharray:none" transform="matrix(.58065 .80777 -.82118 .55206 419.428 -395.85)"><ellipse cx="672.615" cy="76.006" rx="54.102" ry="48.643" style="fill:url(#r);fill-opacity:1;fill-rule:evenodd;stroke:#484848;stroke-width:.38103614;stroke-linejoin:bevel;stroke-dasharray:none;stroke-opacity:1"/><ellipse cx="674.605" cy="91.261" rx="54.102" ry="48.643" style="fill:url(#s);fill-opacity:1;fill-rule:evenodd;stroke:#484848;stroke-width:.38103614;stroke-linejoin:bevel;stroke-dasharray:none;stroke-opacity:1"/><ellipse cx="677.043" cy="107.546" rx="54.102" ry="48.643" style="fill:url(#t);fill-opacity:1;fill-rule:evenodd;stroke:#484848;stroke-width:.38103614;stroke-linejoin:bevel;stroke-dasharray:none;stroke-opacity:1"/></g><g style="stroke:#484848;stroke-opacity:1;stroke-width:.37795277;stroke-dasharray:none" transform="matrix(.5896 .8077 -.83384 .55201 381.592 -366.32)"><ellipse cx="673.134" cy="77.063" rx="54.102" ry="48.643" style="fill:url(#u);fill-opacity:1;fill-rule:evenodd;stroke:#484848;stroke-width:.37815101;stroke-linejoin:bevel;stroke-dasharray:none;stroke-opacity:1"/><ellipse cx="674.947" cy="92.165" rx="54.102" ry="48.643" style="fill:url(#v);fill-opacity:1;fill-rule:evenodd;stroke:#484848;stroke-width:.37815101;stroke-linejoin:bevel;stroke-dasharray:none;stroke-opacity:1"/><ellipse cx="676.866" cy="107.806" rx="54.102" ry="48.643" style="fill:url(#w);fill-opacity:1;fill-rule:evenodd;stroke:#484848;stroke-width:.37815101;stroke-linejoin:bevel;stroke-dasharray:none;stroke-opacity:1"/></g><g style="stroke:#484848;stroke-opacity:1;stroke-width:.37795277;stroke-dasharray:none" transform="matrix(.5896 .8077 -.83384 .55201 347.747 -336.468)"><ellipse cx="672.674" cy="76.672" rx="54.102" ry="48.643" style="fill:url(#x);fill-opacity:1;fill-rule:evenodd;stroke:#484848;stroke-width:.37815101;stroke-linejoin:bevel;stroke-dasharray:none;stroke-opacity:1"/><ellipse cx="674.856" cy="91.715" rx="54.102" ry="48.643" style="fill:url(#y);fill-opacity:1;fill-rule:evenodd;stroke:#484848;stroke-width:.37815101;stroke-linejoin:bevel;stroke-dasharray:none;stroke-opacity:1"/><ellipse cx="677.043" cy="107.546" rx="54.102" ry="48.643" style="fill:url(#z);fill-opacity:1;fill-rule:evenodd;stroke:#484848;stroke-width:.37815101;stroke-linejoin:bevel;stroke-dasharray:none;stroke-opacity:1"/></g><g style="stroke-width:.37795277;stroke-dasharray:none" transform="translate(314.514 -305.167)"><ellipse cx="671.87" cy="76.103" rx="54.102" ry="48.643" style="fill:url(#A);fill-opacity:1;fill-rule:evenodd;stroke:#484848;stroke-width:.37815103;stroke-linejoin:bevel;stroke-dasharray:none;stroke-opacity:1" transform="matrix(.5896 .8077 -.83384 .55201 0 0)"/><ellipse cx="674.856" cy="91.715" rx="54.102" ry="48.643" style="fill:url(#B);fill-opacity:1;fill-rule:evenodd;stroke:#484848;stroke-width:.37815101;stroke-linejoin:bevel;stroke-dasharray:none;stroke-opacity:1" transform="matrix(.5896 .8077 -.83384 .55201 0 0)"/><ellipse cx="677.043" cy="107.546" rx="54.102" ry="48.643" style="fill:url(#C);fill-opacity:1;fill-rule:evenodd;stroke:#484848;stroke-width:.37815101;stroke-linejoin:bevel;stroke-dasharray:none;stroke-opacity:1" transform="matrix(.5896 .8077 -.83384 .55201 0 0)"/></g><g style="stroke-width:.37795277;stroke-dasharray:none" transform="translate(279.797 -272.023)"><ellipse cx="671.87" cy="76.103" rx="54.102" ry="48.643" style="fill:url(#D);fill-opacity:1;fill-rule:evenodd;stroke:#484848;stroke-width:.37815103;stroke-linejoin:bevel;stroke-dasharray:none;stroke-opacity:1" transform="matrix(.5896 .8077 -.83384 .55201 0 0)"/><ellipse cx="675.107" cy="91.348" rx="54.102" ry="48.643" style="fill:url(#E);fill-opacity:1;fill-rule:evenodd;stroke:#484848;stroke-width:.37815101;stroke-linejoin:bevel;stroke-dasharray:none;stroke-opacity:1" transform="matrix(.5896 .8077 -.83384 .55201 0 0)"/><ellipse cx="677.043" cy="107.546" rx="54.102" ry="48.643" style="fill:url(#F);fill-opacity:1;fill-rule:evenodd;stroke:#484848;stroke-width:.37815101;stroke-linejoin:bevel;stroke-dasharray:none;stroke-opacity:1" transform="matrix(.5896 .8077 -.83384 .55201 0 0)"/></g><g style="stroke-width:.37795277;stroke-dasharray:none" transform="matrix(.5896 .8077 -.83384 .55201 245.518 -240.613)"><ellipse cx="672.249" cy="76.371" rx="54.102" ry="48.643" style="fill:url(#G);fill-opacity:1;fill-rule:evenodd;stroke:#484848;stroke-width:.37815101;stroke-linejoin:bevel;stroke-dasharray:none;stroke-opacity:1"/><ellipse cx="674.856" cy="91.715" rx="54.102" ry="48.643" style="fill:url(#H);fill-opacity:1;fill-rule:evenodd;stroke:#484848;stroke-width:.37815101;stroke-linejoin:bevel;stroke-dasharray:none;stroke-opacity:1"/><ellipse cx="677.043" cy="107.546" rx="54.102" ry="48.643" style="fill:url(#I);fill-opacity:1;fill-rule:evenodd;stroke:#484848;stroke-width:.37815101;stroke-linejoin:bevel;stroke-dasharray:none;stroke-opacity:1"/></g><g style="stroke-width:.37795277;stroke-dasharray:none" transform="translate(212.465 -209.1)"><ellipse cx="671.87" cy="76.103" rx="54.102" ry="48.643" style="fill:url(#J);fill-opacity:1;fill-rule:evenodd;stroke:#484848;stroke-width:.37815103;stroke-linejoin:bevel;stroke-dasharray:none;stroke-opacity:1" transform="matrix(.5896 .8077 -.83384 .55201 0 0)"/><ellipse cx="674.856" cy="91.715" rx="54.102" ry="48.643" style="fill:url(#K);fill-opacity:1;fill-rule:evenodd;stroke:#484848;stroke-width:.37815101;stroke-linejoin:bevel;stroke-dasharray:none;stroke-opacity:1" transform="matrix(.5896 .8077 -.83384 .55201 0 0)"/><ellipse cx="677.043" cy="107.546" rx="54.102" ry="48.643" style="fill:url(#L);fill-opacity:1;fill-rule:evenodd;stroke:#484848;stroke-width:.37815101;stroke-linejoin:bevel;stroke-dasharray:none;stroke-opacity:1" transform="matrix(.5896 .8077 -.83384 .55201 0 0)"/></g><g style="stroke-width:.37213278;stroke-dasharray:none" transform="matrix(.6128 .80163 -.86663 .54787 166.723 -172.475)"><ellipse cx="670.553" cy="75.958" rx="54.102" ry="48.643" style="fill:url(#M);fill-opacity:1;fill-rule:evenodd;stroke:#484848;stroke-width:.37232797;stroke-linejoin:bevel;stroke-dasharray:none;stroke-opacity:1"/><ellipse cx="673.633" cy="92.333" rx="54.102" ry="48.643" style="fill:url(#N);fill-opacity:1;fill-rule:evenodd;stroke:#484848;stroke-width:.37232797;stroke-linejoin:bevel;stroke-dasharray:none;stroke-opacity:1"/><ellipse cx="677.043" cy="107.546" rx="54.102" ry="48.643" style="fill:url(#O);fill-opacity:1;fill-rule:evenodd;stroke:#484848;stroke-width:.37232797;stroke-linejoin:bevel;stroke-dasharray:none;stroke-opacity:1"/></g><g style="stroke-width:.37795277;stroke-dasharray:none" transform="translate(113.093 -117.658)"><g style="stroke-width:.37795277;stroke-dasharray:none" transform="translate(32.06 -28.917)"><ellipse cx="671.87" cy="76.103" rx="54.102" ry="48.643" style="fill:url(#P);fill-opacity:1;fill-rule:evenodd;stroke:#484848;stroke-width:.37815103;stroke-linejoin:bevel;stroke-dasharray:none;stroke-opacity:1" transform="matrix(.5896 .8077 -.83384 .55201 0 0)"/><ellipse cx="674.856" cy="91.715" rx="54.102" ry="48.643" style="fill:url(#Q);fill-opacity:1;fill-rule:evenodd;stroke:#484848;stroke-width:.37815101;stroke-linejoin:bevel;stroke-dasharray:none;stroke-opacity:1" transform="matrix(.5896 .8077 -.83384 .55201 0 0)"/><ellipse cx="677.043" cy="107.546" rx="54.102" ry="48.643" style="fill:url(#R);fill-opacity:1;fill-rule:evenodd;stroke:#484848;stroke-width:.37815101;stroke-linejoin:bevel;stroke-dasharray:none;stroke-opacity:1" transform="matrix(.5896 .8077 -.83384 .55201 0 0)"/></g><ellipse cx="671.87" cy="76.103" rx="54.102" ry="48.643" style="fill:url(#S);fill-opacity:1;fill-rule:evenodd;stroke:#484848;stroke-width:.37815103;stroke-linejoin:bevel;stroke-dasharray:none;stroke-opacity:1" transform="matrix(.5896 .8077 -.83384 .55201 0 0)"/><ellipse cx="675.479" cy="91.386" rx="54.102" ry="48.643" style="fill:url(#T);fill-opacity:1;fill-rule:evenodd;stroke:#484848;stroke-width:.37815101;stroke-linejoin:bevel;stroke-dasharray:none;stroke-opacity:1" transform="matrix(.5896 .8077 -.83384 .55201 0 0)"/><ellipse cx="678.734" cy="106.817" rx="54.102" ry="48.643" style="fill:url(#U);fill-opacity:1;fill-rule:evenodd;stroke:#484848;stroke-width:.37815101;stroke-linejoin:bevel;stroke-dasharray:none;stroke-opacity:1" transform="matrix(.5896 .8077 -.83384 .55201 0 0)"/></g><g style="stroke-width:.37795277;stroke-dasharray:none" transform="translate(43.69 -52.09)"><g style="stroke-width:.37795277;stroke-dasharray:none" transform="translate(37.169 -34.27)"><ellipse cx="671.87" cy="76.103" rx="54.102" ry="48.643" style="fill:url(#V);fill-opacity:1;fill-rule:evenodd;stroke:#484848;stroke-width:.37815103;stroke-linejoin:bevel;stroke-dasharray:none;stroke-opacity:1" transform="matrix(.5896 .8077 -.83384 .55201 0 0)"/><ellipse cx="674.856" cy="91.715" rx="54.102" ry="48.643" style="fill:url(#W);fill-opacity:1;fill-rule:evenodd;stroke:#484848;stroke-width:.37815101;stroke-linejoin:bevel;stroke-dasharray:none;stroke-opacity:1" transform="matrix(.5896 .8077 -.83384 .55201 0 0)"/><ellipse cx="677.043" cy="107.546" rx="54.102" ry="48.643" style="fill:url(#X);fill-opacity:1;fill-rule:evenodd;stroke:#484848;stroke-width:.37815101;stroke-linejoin:bevel;stroke-dasharray:none;stroke-opacity:1" transform="matrix(.5896 .8077 -.83384 .55201 0 0)"/></g><ellipse cx="671.87" cy="76.103" rx="54.102" ry="48.643" style="fill:url(#Y);fill-opacity:1;fill-rule:evenodd;stroke:#484848;stroke-width:.37815103;stroke-linejoin:bevel;stroke-dasharray:none;stroke-opacity:1" transform="matrix(.5896 .8077 -.83384 .55201 0 0)"/><ellipse cx="674.856" cy="91.715" rx="54.102" ry="48.643" style="fill:url(#Z);fill-opacity:1;fill-rule:evenodd;stroke:#484848;stroke-width:.37815101;stroke-linejoin:bevel;stroke-dasharray:none;stroke-opacity:1" transform="matrix(.5896 .8077 -.83384 .55201 0 0)"/><ellipse cx="677.043" cy="107.546" rx="54.102" ry="48.643" style="fill:url(#aa);fill-opacity:1;fill-rule:evenodd;stroke:#484848;stroke-width:.37815101;stroke-linejoin:bevel;stroke-dasharray:none;stroke-opacity:1" transform="matrix(.5896 .8077 -.83384 .55201 0 0)"/></g><g style="stroke-width:.37795277;stroke-dasharray:none" transform="translate(10.105 -20.626)"><ellipse cx="671.87" cy="76.103" rx="54.102" ry="48.643" style="fill:url(#ab);fill-opacity:1;fill-rule:evenodd;stroke:#484848;stroke-width:.37815103;stroke-linejoin:bevel;stroke-dasharray:none;stroke-opacity:1" transform="matrix(.5896 .8077 -.83384 .55201 0 0)"/><ellipse cx="674.856" cy="91.715" rx="54.102" ry="48.643" style="fill:url(#ac);fill-opacity:1;fill-rule:evenodd;stroke:#484848;stroke-width:.37815101;stroke-linejoin:bevel;stroke-dasharray:none;stroke-opacity:1" transform="matrix(.5896 .8077 -.83384 .55201 0 0)"/><ellipse cx="677.043" cy="107.546" rx="54.102" ry="48.643" style="fill:url(#ad);fill-opacity:1;fill-rule:evenodd;stroke:url(#linearGradient54);stroke-width:.37815101;stroke-linejoin:bevel;stroke-dasharray:none;stroke-opacity:1" transform="matrix(.5896 .8077 -.83384 .55201 0 0)"/></g></g><rect width="87.734" height="107.907" x="623.603" y="15.512" rx="43.867" ry="43.862" style="fill:url(#ae);fill-opacity:1;fill-rule:evenodd;stroke:none;stroke-width:.135691;stroke-linejoin:bevel" transform="matrix(.5384 .84269 -.79562 .6058 0 0)"/><ellipse cx="166.822" cy="655.352" rx="64.964" ry="65.749" style="fill:url(#af);fill-rule:evenodd;stroke:#b2b2b2;stroke-width:.140421;stroke-linejoin:bevel" transform="matrix(.99771 -.06764 .16098 .98696 0 0)"/><ellipse cx="162.142" cy="658.767" rx="61.874" ry="62.758" style="fill:#f2f2f2;fill-opacity:1;fill-rule:evenodd;stroke:#b2b2b2;stroke-width:.133888;stroke-linejoin:bevel" transform="matrix(.99767 -.06818 .16024 .98708 0 0)"/><g transform="translate(.488 -4.456)"><ellipse cx="373.486" cy="553.582" rx="39.45" ry="39.66" style="fill:url(#ag);fill-rule:evenodd;stroke:#b2b2b2;stroke-width:.0849867;stroke-linejoin:bevel" transform="matrix(.96338 .26813 -.17179 .98513 0 0)"/><ellipse cx="377.188" cy="550.687" rx="36.047" ry="36.181" style="fill:#2a2a2a;fill-opacity:1;fill-rule:evenodd;stroke:#fff;stroke-width:1.1194;stroke-linejoin:bevel;stroke-dasharray:none;stroke-opacity:1" transform="matrix(.96348 .26779 -.17198 .9851 0 0)"/></g></svg>