<svg xmlns="http://www.w3.org/2000/svg" xmlns:xlink="http://www.w3.org/1999/xlink" xml:space="preserve" width="297mm" height="210mm" viewBox="0 0 1122.52 793.701"><defs><linearGradient id="c"><stop offset="0" style="stop-color:#6e6e6e;stop-opacity:1"/><stop offset=".5" style="stop-color:#8e8e8e;stop-opacity:1"/><stop offset="1" style="stop-color:#656565;stop-opacity:1"/></linearGradient><linearGradient id="b"><stop offset="0" style="stop-color:#969696;stop-opacity:1"/><stop offset=".21" style="stop-color:#989898;stop-opacity:1"/><stop offset=".527" style="stop-color:#757575;stop-opacity:1"/><stop offset=".801" style="stop-color:#919191;stop-opacity:1"/><stop offset="1" style="stop-color:#707070;stop-opacity:1"/></linearGradient><linearGradient id="a"><stop offset="0" style="stop-color:#707070;stop-opacity:1"/><stop offset=".5" style="stop-color:#353535;stop-opacity:1"/><stop offset=".625" style="stop-color:#a0a0a0;stop-opacity:1"/><stop offset=".75" style="stop-color:#414141;stop-opacity:1"/><stop offset="1" style="stop-color:#656565;stop-opacity:1"/></linearGradient><linearGradient xlink:href="#b" id="d" x1="291.559" x2="290.752" y1="605.956" y2="679.029" gradientUnits="userSpaceOnUse"/><linearGradient xlink:href="#c" id="f" x1="627.538" x2="700.073" y1="-3.108" y2="-3.108" gradientTransform="translate(19.968 24.897)" gradientUnits="userSpaceOnUse"/><clipPath id="e" clipPathUnits="userSpaceOnUse"><path d="M162.177 345.012-38.621 615.488c.057.779 1.121-.704 1.365-.459.047.049.063.165.033.378-.006.049-.009.1-.019.148-.06.298-.262.608-.416.862-.307.498-.64.979-.97 1.462-.28.417-.561.831-.85 1.242-.187.266-.38.53-.57.795-.011.016-.025.03-.037.046.147.253.131.648-.19 1.081-.01.013-.021.026-.03.04-.062.095-.113.21-.163.311-.1.205-.24.499-.334.697-.313.67-.637 1.335-.964 1.998-.017.042-.033.083-.055.127-.126.254-.25.51-.347.779-.049.134-.092.27-.137.405-.359 1.156-.68 2.324-1.033 3.482-.24.778-.499 1.55-.793 2.307-.165.425-.221.552-.396.963-.127.293-.266.58-.4.87a.14.14 0 0 1 .068.028c.078.063.124.225.13.532.006.371-.075.733-.144 1.093-.204 1-.366 2.01-.532 3.018-.084.534-.195 1.063-.297 1.594.28.233.483.672.468 1.313-.01.429-.023.856-.034 1.284-.028.759-.052 1.517-.078 2.276-.032.716-.08 1.431-.164 2.142-.022.167-.053.333-.078.5.17.241.298.574.343 1.002.043.408.076.817.1 1.226.027.49.037.982.09 1.472.05.392.118.78.156 1.174.056.553.054 1.108.052 1.661.114.592.222 1.184.352 1.773.081.378.178.752.27 1.128.038.022.076.047.114.075.204.15.404.38.581.709.191.354.373.716.541 1.08.19.445.395.883.565 1.336.11.266.124.55.158.83.02.164.031.199.064.365.136.585.343 1.151.556 1.714.047.122.096.243.144.365.186.479.177.86.084 1.157.092.221.19.44.285.66.091.19.164.386.245.58.134.299.307.58.485.855.31.478.657.933 1.005 1.384.5.651 1.058 1.252 1.61 1.858.455.488.901.986 1.351 1.478.23.234.436.486.634.746l.076.101c.341.451.459.867.426 1.196l353.235 268.897 226.75-305.433ZM-39.815 617.097l-.918 1.235a.53.53 0 0 1 .03.059c.024-.034.05-.068.073-.102a72.2 72.2 0 0 0 .815-1.192zm-6.777 9.127-.78 1.052c.362-.153.6-.615.78-1.052zm-2.744 3.697-15.237 20.524 23.457 17.855a20.407 20.407 0 0 1-.938-1.302c-.173-.269-.338-.544-.484-.828-.374-.006-.794-.172-1.171-.765-.142-.224-.239-.47-.366-.702-.41.384-1.202.246-1.739-.745a6.86 6.86 0 0 1-.338-.689 9.869 9.869 0 0 1-.17-.463c-.581.023-1.252-.252-1.782-1.24-.132-.246-.26-.495-.377-.749a11.05 11.05 0 0 1-.472-1.157c-.105-.333-.199-.67-.292-1.006-.103-.316-.248-.618-.362-.93-.148-.383-.302-.764-.442-1.15-.185-.5-.376-1-.536-1.507a11.227 11.227 0 0 1-.377-1.736 73.463 73.463 0 0 1-.209-1.69c-.29-.331-.526-.813-.605-1.49-.069-.587-.112-1.176-.163-1.764-.052-.735-.068-1.47.006-2.199.018-.147.03-.295.052-.441.059-.37.19-.719.302-1.074.003-.015.001-.032.004-.047.057-.379.111-.76.178-1.136 0-.004.003.009.004.013.025.125.053.23.086.325.087-.227.17-.457.29-.667.076-.169.101-.35.123-.534.014-.136.025-.274.035-.411-.816.026-1.583-.747-1.288-2.298.156-.823.34-1.64.556-2.447.453-1.755.94-3.502 1.511-5.218.256-.775.51-1.55.744-2.332z" style="fill:red;fill-opacity:1;fill-rule:nonzero;stroke:none;stroke-width:1.00047"/></clipPath></defs><rect width="580.873" height="72.194" x="-50.382" y="607.221" clip-path="url(#e)" ry="36.097" style="fill:url(#d);fill-rule:evenodd;stroke-width:2.44868;stroke-linejoin:bevel" transform="matrix(.80104 -.62424 .59469 .82003 5.92 34.576)"/><ellipse cx="683.773" cy="21.789" rx="35.462" ry="23.086" style="fill:url(#f);fill-rule:evenodd;stroke:url(#linearGradient7);stroke-width:1.61123;stroke-linejoin:bevel;stroke-opacity:1" transform="matrix(.56753 .82335 -.81627 .57767 0 0)"/></svg>