<?xml version="1.0" encoding="UTF-8" standalone="no"?>
<!-- Created with Inkscape (http://www.inkscape.org/) -->

<svg
   width="210mm"
   height="297mm"
   viewBox="0 0 210 297"
   version="1.1"
   id="schematic-window"
   sodipodi:docname="FID-DISPLAY.svg"
   inkscape:version="1.4 (86a8ad7, 2024-10-11)"
   xmlns:inkscape="http://www.inkscape.org/namespaces/inkscape"
   xmlns:sodipodi="http://sodipodi.sourceforge.net/DTD/sodipodi-0.dtd"
   xmlns:xlink="http://www.w3.org/1999/xlink"
   xmlns="http://www.w3.org/2000/svg"
   xmlns:svg="http://www.w3.org/2000/svg">
  <sodipodi:namedview
     id="namedview1"
     pagecolor="#ffffff"
     bordercolor="#999999"
     borderopacity="1"
     inkscape:showpageshadow="2"
     inkscape:pageopacity="0"
     inkscape:pagecheckerboard="0"
     inkscape:deskcolor="#d1d1d1"
     inkscape:document-units="mm"
     inkscape:zoom="1.7552332"
     inkscape:cx="317.05189"
     inkscape:cy="382.28539"
     inkscape:window-width="1920"
     inkscape:window-height="1057"
     inkscape:window-x="-8"
     inkscape:window-y="-8"
     inkscape:window-maximized="1"
     inkscape:current-layer="schematic-window"
     showgrid="false">
    <inkscape:page
       x="0"
       y="0"
       width="210"
       height="297"
       id="page56"
       margin="0"
       bleed="0" />
  </sodipodi:namedview>
  <defs
     id="defs1">
    <linearGradient
       id="linearGradient286"
       inkscape:collect="always">
      <stop
         style="stop-color:#000000;stop-opacity:1;"
         offset="0"
         id="stop286" />
      <stop
         style="stop-color:#000000;stop-opacity:0;"
         offset="1"
         id="stop287" />
    </linearGradient>
    <inkscape:path-effect
       effect="simplify"
       id="path-effect49"
       is_visible="true"
       lpeversion="1.3"
       threshold="5000.000000"
       steps="1"
       smooth_angles="360"
       helper_size="0"
       simplify_individual_paths="false"
       simplify_just_coalesce="false" />
    <inkscape:path-effect
       effect="simplify"
       id="path-effect48"
       is_visible="true"
       lpeversion="1.3"
       threshold="5000.000000"
       steps="1"
       smooth_angles="360"
       helper_size="0"
       simplify_individual_paths="false"
       simplify_just_coalesce="false" />
    <inkscape:path-effect
       effect="simplify"
       id="path-effect46"
       is_visible="true"
       lpeversion="1.3"
       threshold="5000.000000"
       steps="1"
       smooth_angles="360"
       helper_size="0"
       simplify_individual_paths="false"
       simplify_just_coalesce="false" />
    <inkscape:path-effect
       effect="simplify"
       id="path-effect45"
       is_visible="true"
       lpeversion="1.3"
       threshold="5000.000000"
       steps="1"
       smooth_angles="360"
       helper_size="0"
       simplify_individual_paths="false"
       simplify_just_coalesce="false" />
    <inkscape:path-effect
       effect="simplify"
       id="path-effect34"
       is_visible="true"
       lpeversion="1.3"
       threshold="5000.000000"
       steps="1"
       smooth_angles="360"
       helper_size="0"
       simplify_individual_paths="false"
       simplify_just_coalesce="false" />
    <inkscape:path-effect
       effect="simplify"
       id="path-effect31"
       is_visible="true"
       lpeversion="1.3"
       threshold="5000.000000"
       steps="1"
       smooth_angles="360"
       helper_size="0"
       simplify_individual_paths="false"
       simplify_just_coalesce="false" />
    <inkscape:path-effect
       effect="powerstroke"
       message=""
       id="path-effect29"
       is_visible="true"
       lpeversion="1.3"
       scale_width="1"
       interpolator_type="CentripetalCatmullRom"
       interpolator_beta="0.75"
       start_linecap_type="peak"
       end_linecap_type="peak"
       offset_points="5.4349354,3.197672"
       linejoin_type="spiro"
       miter_limit="4"
       not_jump="true"
       sort_points="true" />
    <inkscape:path-effect
       effect="simplify"
       id="path-effect28"
       is_visible="true"
       lpeversion="1.3"
       threshold="0.6"
       steps="1"
       smooth_angles="0"
       helper_size="0"
       simplify_individual_paths="false"
       simplify_just_coalesce="false"
       step="1" />
    <inkscape:path-effect
       effect="bspline"
       id="path-effect27"
       is_visible="true"
       lpeversion="1.3"
       weight="33.333333"
       steps="2"
       helper_size="0"
       apply_no_weight="true"
       apply_with_weight="true"
       only_selected="false"
       uniform="false" />
    <inkscape:path-effect
       effect="spiro"
       id="path-effect25"
       is_visible="true"
       lpeversion="1" />
    <inkscape:path-effect
       effect="powerstroke"
       message=""
       id="path-effect22"
       is_visible="true"
       lpeversion="1.3"
       scale_width="1"
       interpolator_type="CentripetalCatmullRom"
       interpolator_beta="0.75"
       start_linecap_type="peak"
       end_linecap_type="peak"
       offset_points="4.6758449,3.197672"
       linejoin_type="spiro"
       miter_limit="4"
       not_jump="true"
       sort_points="true" />
    <inkscape:path-effect
       effect="simplify"
       id="path-effect20"
       is_visible="true"
       lpeversion="1.3"
       threshold="0.6"
       steps="1"
       smooth_angles="0"
       helper_size="0"
       simplify_individual_paths="false"
       simplify_just_coalesce="false"
       step="1" />
    <inkscape:path-effect
       effect="bspline"
       id="path-effect17"
       is_visible="true"
       lpeversion="1.3"
       weight="33.333333"
       steps="2"
       helper_size="0"
       apply_no_weight="true"
       apply_with_weight="true"
       only_selected="false"
       uniform="false" />
    <inkscape:path-effect
       effect="bspline"
       id="path-effect16"
       is_visible="true"
       lpeversion="1.3"
       weight="33.333333"
       steps="2"
       helper_size="0"
       apply_no_weight="true"
       apply_with_weight="true"
       only_selected="false"
       uniform="false" />
    <inkscape:path-effect
       effect="bspline"
       id="path-effect15"
       is_visible="true"
       lpeversion="1.3"
       weight="33.333333"
       steps="2"
       helper_size="0"
       apply_no_weight="true"
       apply_with_weight="true"
       only_selected="false"
       uniform="false" />
    <inkscape:path-effect
       effect="bspline"
       id="path-effect12"
       is_visible="true"
       lpeversion="1.3"
       weight="33.333333"
       steps="2"
       helper_size="0"
       apply_no_weight="true"
       apply_with_weight="true"
       only_selected="false"
       uniform="false" />
    <inkscape:path-effect
       effect="simplify"
       id="path-effect131"
       is_visible="true"
       lpeversion="1.3"
       threshold="5000.000000"
       steps="1"
       smooth_angles="360"
       helper_size="0"
       simplify_individual_paths="false"
       simplify_just_coalesce="false" />
    <inkscape:path-effect
       effect="spiro"
       id="path-effect130"
       is_visible="true"
       lpeversion="1" />
    <inkscape:path-effect
       effect="simplify"
       id="path-effect129"
       is_visible="true"
       lpeversion="1.3"
       threshold="5000.000000"
       steps="1"
       smooth_angles="360"
       helper_size="0"
       simplify_individual_paths="false"
       simplify_just_coalesce="false" />
    <inkscape:path-effect
       effect="spiro"
       id="path-effect128"
       is_visible="true"
       lpeversion="1" />
    <inkscape:path-effect
       effect="simplify"
       id="path-effect127"
       is_visible="true"
       lpeversion="1.3"
       threshold="5000.000000"
       steps="1"
       smooth_angles="360"
       helper_size="0"
       simplify_individual_paths="false"
       simplify_just_coalesce="false" />
    <inkscape:path-effect
       effect="bspline"
       id="path-effect125"
       is_visible="true"
       lpeversion="1.3"
       weight="33.333333"
       steps="2"
       helper_size="0"
       apply_no_weight="true"
       apply_with_weight="true"
       only_selected="false"
       uniform="false" />
    <inkscape:path-effect
       effect="bspline"
       id="path-effect124"
       is_visible="true"
       lpeversion="1.3"
       weight="33.333333"
       steps="2"
       helper_size="0"
       apply_no_weight="true"
       apply_with_weight="true"
       only_selected="false"
       uniform="false" />
    <inkscape:path-effect
       effect="bspline"
       id="path-effect123"
       is_visible="true"
       lpeversion="1.3"
       weight="33.333333"
       steps="2"
       helper_size="0"
       apply_no_weight="true"
       apply_with_weight="true"
       only_selected="false"
       uniform="false" />
    <inkscape:path-effect
       effect="bspline"
       id="path-effect121"
       is_visible="true"
       lpeversion="1.3"
       weight="33.333333"
       steps="2"
       helper_size="0"
       apply_no_weight="true"
       apply_with_weight="true"
       only_selected="false"
       uniform="false" />
    <inkscape:path-effect
       effect="bspline"
       id="path-effect120"
       is_visible="true"
       lpeversion="1.3"
       weight="33.333333"
       steps="2"
       helper_size="0"
       apply_no_weight="true"
       apply_with_weight="true"
       only_selected="false"
       uniform="false" />
    <inkscape:path-effect
       effect="bspline"
       id="path-effect119"
       is_visible="true"
       lpeversion="1.3"
       weight="33.333333"
       steps="2"
       helper_size="0"
       apply_no_weight="true"
       apply_with_weight="true"
       only_selected="false"
       uniform="false" />
    <inkscape:path-effect
       effect="bspline"
       id="path-effect118"
       is_visible="true"
       lpeversion="1.3"
       weight="33.333333"
       steps="2"
       helper_size="0"
       apply_no_weight="true"
       apply_with_weight="true"
       only_selected="false"
       uniform="false" />
    <inkscape:path-effect
       effect="bspline"
       id="path-effect117"
       is_visible="true"
       lpeversion="1.3"
       weight="33.333333"
       steps="2"
       helper_size="0"
       apply_no_weight="true"
       apply_with_weight="true"
       only_selected="false"
       uniform="false" />
    <inkscape:path-effect
       effect="bspline"
       id="path-effect112"
       is_visible="true"
       lpeversion="1.3"
       weight="33.333333"
       steps="2"
       helper_size="0"
       apply_no_weight="true"
       apply_with_weight="true"
       only_selected="false"
       uniform="false" />
    <inkscape:path-effect
       effect="bspline"
       id="path-effect111"
       is_visible="true"
       lpeversion="1.3"
       weight="33.333333"
       steps="2"
       helper_size="0"
       apply_no_weight="true"
       apply_with_weight="true"
       only_selected="false"
       uniform="false" />
    <inkscape:path-effect
       effect="bspline"
       id="path-effect110"
       is_visible="true"
       lpeversion="1.3"
       weight="33.333333"
       steps="2"
       helper_size="0"
       apply_no_weight="true"
       apply_with_weight="true"
       only_selected="false"
       uniform="false" />
    <inkscape:path-effect
       effect="bspline"
       id="path-effect109"
       is_visible="true"
       lpeversion="1.3"
       weight="33.333333"
       steps="2"
       helper_size="0"
       apply_no_weight="true"
       apply_with_weight="true"
       only_selected="false"
       uniform="false" />
    <inkscape:path-effect
       effect="bspline"
       id="path-effect108"
       is_visible="true"
       lpeversion="1.3"
       weight="33.333333"
       steps="2"
       helper_size="0"
       apply_no_weight="true"
       apply_with_weight="true"
       only_selected="false"
       uniform="false" />
    <inkscape:path-effect
       effect="bspline"
       id="path-effect107"
       is_visible="true"
       lpeversion="1.3"
       weight="33.333333"
       steps="2"
       helper_size="0"
       apply_no_weight="true"
       apply_with_weight="true"
       only_selected="false"
       uniform="false" />
    <inkscape:path-effect
       effect="bspline"
       id="path-effect106"
       is_visible="true"
       lpeversion="1.3"
       weight="33.333333"
       steps="2"
       helper_size="0"
       apply_no_weight="true"
       apply_with_weight="true"
       only_selected="false"
       uniform="false" />
    <inkscape:path-effect
       effect="bspline"
       id="path-effect105"
       is_visible="true"
       lpeversion="1.3"
       weight="33.333333"
       steps="2"
       helper_size="0"
       apply_no_weight="true"
       apply_with_weight="true"
       only_selected="false"
       uniform="false" />
    <inkscape:path-effect
       effect="bspline"
       id="path-effect104"
       is_visible="true"
       lpeversion="1.3"
       weight="33.333333"
       steps="2"
       helper_size="0"
       apply_no_weight="true"
       apply_with_weight="true"
       only_selected="false"
       uniform="false" />
    <inkscape:path-effect
       effect="bspline"
       id="path-effect103"
       is_visible="true"
       lpeversion="1.3"
       weight="33.333333"
       steps="2"
       helper_size="0"
       apply_no_weight="true"
       apply_with_weight="true"
       only_selected="false"
       uniform="false" />
    <inkscape:path-effect
       effect="bspline"
       id="path-effect102"
       is_visible="true"
       lpeversion="1.3"
       weight="33.333333"
       steps="2"
       helper_size="0"
       apply_no_weight="true"
       apply_with_weight="true"
       only_selected="false"
       uniform="false" />
    <inkscape:path-effect
       effect="bspline"
       id="path-effect101"
       is_visible="true"
       lpeversion="1.3"
       weight="33.333333"
       steps="2"
       helper_size="0"
       apply_no_weight="true"
       apply_with_weight="true"
       only_selected="false"
       uniform="false" />
    <inkscape:path-effect
       effect="bspline"
       id="path-effect100"
       is_visible="true"
       lpeversion="1.3"
       weight="33.333333"
       steps="2"
       helper_size="0"
       apply_no_weight="true"
       apply_with_weight="true"
       only_selected="false"
       uniform="false" />
    <inkscape:path-effect
       effect="bspline"
       id="path-effect99"
       is_visible="true"
       lpeversion="1.3"
       weight="33.333333"
       steps="2"
       helper_size="0"
       apply_no_weight="true"
       apply_with_weight="true"
       only_selected="false"
       uniform="false" />
    <inkscape:path-effect
       effect="bspline"
       id="path-effect98"
       is_visible="true"
       lpeversion="1.3"
       weight="33.333333"
       steps="2"
       helper_size="0"
       apply_no_weight="true"
       apply_with_weight="true"
       only_selected="false"
       uniform="false" />
    <inkscape:path-effect
       effect="bspline"
       id="path-effect97"
       is_visible="true"
       lpeversion="1.3"
       weight="33.333333"
       steps="2"
       helper_size="0"
       apply_no_weight="true"
       apply_with_weight="true"
       only_selected="false"
       uniform="false" />
    <inkscape:path-effect
       effect="bspline"
       id="path-effect96"
       is_visible="true"
       lpeversion="1.3"
       weight="33.333333"
       steps="2"
       helper_size="0"
       apply_no_weight="true"
       apply_with_weight="true"
       only_selected="false"
       uniform="false" />
    <inkscape:path-effect
       effect="bspline"
       id="path-effect95"
       is_visible="true"
       lpeversion="1.3"
       weight="33.333333"
       steps="2"
       helper_size="0"
       apply_no_weight="true"
       apply_with_weight="true"
       only_selected="false"
       uniform="false" />
    <inkscape:path-effect
       effect="bspline"
       id="path-effect94"
       is_visible="true"
       lpeversion="1.3"
       weight="33.333333"
       steps="2"
       helper_size="0"
       apply_no_weight="true"
       apply_with_weight="true"
       only_selected="false"
       uniform="false" />
    <inkscape:path-effect
       effect="bspline"
       id="path-effect93"
       is_visible="true"
       lpeversion="1.3"
       weight="33.333333"
       steps="2"
       helper_size="0"
       apply_no_weight="true"
       apply_with_weight="true"
       only_selected="false"
       uniform="false" />
    <inkscape:path-effect
       effect="bspline"
       id="path-effect92"
       is_visible="true"
       lpeversion="1.3"
       weight="33.333333"
       steps="2"
       helper_size="0"
       apply_no_weight="true"
       apply_with_weight="true"
       only_selected="false"
       uniform="false" />
    <inkscape:path-effect
       effect="bspline"
       id="path-effect91"
       is_visible="true"
       lpeversion="1.3"
       weight="33.333333"
       steps="2"
       helper_size="0"
       apply_no_weight="true"
       apply_with_weight="true"
       only_selected="false"
       uniform="false" />
    <inkscape:path-effect
       effect="bspline"
       id="path-effect90"
       is_visible="true"
       lpeversion="1.3"
       weight="33.333333"
       steps="2"
       helper_size="0"
       apply_no_weight="true"
       apply_with_weight="true"
       only_selected="false"
       uniform="false" />
    <inkscape:path-effect
       effect="bspline"
       id="path-effect89"
       is_visible="true"
       lpeversion="1.3"
       weight="33.333333"
       steps="2"
       helper_size="0"
       apply_no_weight="true"
       apply_with_weight="true"
       only_selected="false"
       uniform="false" />
    <inkscape:path-effect
       effect="bspline"
       id="path-effect88"
       is_visible="true"
       lpeversion="1.3"
       weight="33.333333"
       steps="2"
       helper_size="0"
       apply_no_weight="true"
       apply_with_weight="true"
       only_selected="false"
       uniform="false" />
    <inkscape:path-effect
       effect="bspline"
       id="path-effect87"
       is_visible="true"
       lpeversion="1.3"
       weight="33.333333"
       steps="2"
       helper_size="0"
       apply_no_weight="true"
       apply_with_weight="true"
       only_selected="false"
       uniform="false" />
    <inkscape:path-effect
       effect="bspline"
       id="path-effect86"
       is_visible="true"
       lpeversion="1.3"
       weight="33.333333"
       steps="2"
       helper_size="0"
       apply_no_weight="true"
       apply_with_weight="true"
       only_selected="false"
       uniform="false" />
    <inkscape:path-effect
       effect="bspline"
       id="path-effect85"
       is_visible="true"
       lpeversion="1.3"
       weight="33.333333"
       steps="2"
       helper_size="0"
       apply_no_weight="true"
       apply_with_weight="true"
       only_selected="false"
       uniform="false" />
    <inkscape:path-effect
       effect="bspline"
       id="path-effect82"
       is_visible="true"
       lpeversion="1.3"
       weight="33.333333"
       steps="2"
       helper_size="0"
       apply_no_weight="true"
       apply_with_weight="true"
       only_selected="false"
       uniform="false" />
    <inkscape:path-effect
       effect="bspline"
       id="path-effect81"
       is_visible="true"
       lpeversion="1.3"
       weight="33.333333"
       steps="2"
       helper_size="0"
       apply_no_weight="true"
       apply_with_weight="true"
       only_selected="false"
       uniform="false" />
    <inkscape:path-effect
       effect="bspline"
       id="path-effect80"
       is_visible="true"
       lpeversion="1.3"
       weight="33.333333"
       steps="2"
       helper_size="0"
       apply_no_weight="true"
       apply_with_weight="true"
       only_selected="false"
       uniform="false" />
    <inkscape:path-effect
       effect="simplify"
       id="path-effect55"
       is_visible="true"
       lpeversion="1.3"
       threshold="5000.000000"
       steps="1"
       smooth_angles="360"
       helper_size="0"
       simplify_individual_paths="false"
       simplify_just_coalesce="false" />
    <inkscape:path-effect
       effect="simplify"
       id="path-effect54"
       is_visible="true"
       lpeversion="1.3"
       threshold="17.241379"
       steps="1"
       smooth_angles="360"
       helper_size="0"
       simplify_individual_paths="false"
       simplify_just_coalesce="false" />
    <inkscape:path-effect
       effect="simplify"
       id="path-effect53"
       is_visible="true"
       lpeversion="1.3"
       threshold="17.241379"
       steps="1"
       smooth_angles="360"
       helper_size="0"
       simplify_individual_paths="false"
       simplify_just_coalesce="false" />
    <inkscape:path-effect
       effect="spiro"
       id="path-effect44"
       is_visible="true"
       lpeversion="1" />
    <inkscape:path-effect
       effect="simplify"
       id="path-effect43"
       is_visible="true"
       lpeversion="1.3"
       threshold="17.241379"
       steps="1"
       smooth_angles="360"
       helper_size="0"
       simplify_individual_paths="false"
       simplify_just_coalesce="false" />
    <inkscape:path-effect
       effect="spiro"
       id="path-effect42"
       is_visible="true"
       lpeversion="1" />
    <inkscape:path-effect
       effect="simplify"
       id="path-effect41"
       is_visible="true"
       lpeversion="1.3"
       threshold="17.241379"
       steps="1"
       smooth_angles="360"
       helper_size="0"
       simplify_individual_paths="false"
       simplify_just_coalesce="false" />
    <inkscape:path-effect
       effect="spiro"
       id="path-effect40"
       is_visible="true"
       lpeversion="1" />
    <inkscape:path-effect
       effect="bspline"
       id="path-effect14"
       is_visible="true"
       lpeversion="1.3"
       weight="33.333333"
       steps="2"
       helper_size="0"
       apply_no_weight="true"
       apply_with_weight="true"
       only_selected="false"
       uniform="false" />
    <inkscape:path-effect
       effect="bspline"
       id="path-effect11"
       is_visible="true"
       lpeversion="1.3"
       weight="33.333333"
       steps="2"
       helper_size="0"
       apply_no_weight="true"
       apply_with_weight="true"
       only_selected="false"
       uniform="false" />
    <inkscape:path-effect
       effect="spiro"
       id="path-effect10"
       is_visible="true"
       lpeversion="1" />
    <inkscape:path-effect
       effect="spiro"
       id="path-effect9"
       is_visible="true"
       lpeversion="1" />
    <inkscape:path-effect
       effect="spiro"
       id="path-effect8"
       is_visible="true"
       lpeversion="1" />
    <inkscape:path-effect
       effect="spiro"
       id="path-effect7"
       is_visible="true"
       lpeversion="1" />
    <inkscape:path-effect
       effect="spiro"
       id="path-effect6"
       is_visible="true"
       lpeversion="1" />
    <inkscape:path-effect
       effect="spiro"
       id="path-effect5"
       is_visible="true"
       lpeversion="1" />
    <inkscape:path-effect
       effect="spiro"
       id="path-effect4"
       is_visible="true"
       lpeversion="1" />
    <inkscape:path-effect
       effect="spiro"
       id="path-effect3"
       is_visible="true"
       lpeversion="1" />
    <inkscape:path-effect
       effect="spiro"
       id="path-effect2"
       is_visible="true"
       lpeversion="1" />
    <inkscape:path-effect
       effect="spiro"
       id="path-effect1"
       is_visible="true"
       lpeversion="1" />
    <inkscape:path-effect
       effect="spiro"
       id="path-effect39"
       is_visible="true"
       lpeversion="1" />
    <inkscape:path-effect
       effect="spiro"
       id="path-effect38"
       is_visible="true"
       lpeversion="1" />
    <inkscape:path-effect
       effect="spiro"
       id="path-effect37"
       is_visible="true"
       lpeversion="1" />
    <inkscape:path-effect
       effect="spiro"
       id="path-effect36"
       is_visible="true"
       lpeversion="1" />
    <inkscape:path-effect
       effect="spiro"
       id="path-effect35"
       is_visible="true"
       lpeversion="1" />
    <inkscape:path-effect
       effect="spiro"
       id="path-effect33"
       is_visible="true"
       lpeversion="1" />
    <inkscape:path-effect
       effect="spiro"
       id="path-effect32"
       is_visible="true"
       lpeversion="1" />
    <inkscape:path-effect
       effect="bspline"
       id="path-effect30"
       is_visible="true"
       lpeversion="1.3"
       weight="33.333333"
       steps="2"
       helper_size="0"
       apply_no_weight="true"
       apply_with_weight="true"
       only_selected="false"
       uniform="false" />
    <inkscape:path-effect
       effect="spiro"
       id="path-effect24"
       is_visible="true"
       lpeversion="1" />
    <inkscape:path-effect
       effect="spiro"
       id="path-effect23"
       is_visible="true"
       lpeversion="1" />
    <inkscape:path-effect
       effect="spiro"
       id="path-effect21"
       is_visible="true"
       lpeversion="1" />
    <inkscape:path-effect
       effect="bspline"
       id="path-effect13"
       is_visible="true"
       lpeversion="1.3"
       weight="33.333333"
       steps="2"
       helper_size="0"
       apply_no_weight="true"
       apply_with_weight="true"
       only_selected="false"
       uniform="false" />
    <inkscape:path-effect
       effect="bspline"
       id="path-effect79"
       is_visible="true"
       lpeversion="1.3"
       weight="33.333333"
       steps="2"
       helper_size="0"
       apply_no_weight="true"
       apply_with_weight="true"
       only_selected="false"
       uniform="false" />
    <inkscape:path-effect
       effect="spiro"
       id="path-effect78"
       is_visible="true"
       lpeversion="1" />
    <inkscape:path-effect
       effect="spiro"
       id="path-effect77"
       is_visible="true"
       lpeversion="1" />
    <inkscape:path-effect
       effect="bspline"
       id="path-effect76"
       is_visible="true"
       lpeversion="1.3"
       weight="33.333333"
       steps="2"
       helper_size="0"
       apply_no_weight="true"
       apply_with_weight="true"
       only_selected="false"
       uniform="false" />
    <inkscape:path-effect
       effect="spiro"
       id="path-effect75"
       is_visible="true"
       lpeversion="1" />
    <inkscape:path-effect
       effect="spiro"
       id="path-effect74"
       is_visible="true"
       lpeversion="1" />
    <inkscape:path-effect
       effect="spiro"
       id="path-effect73"
       is_visible="true"
       lpeversion="1" />
    <inkscape:path-effect
       effect="spiro"
       id="path-effect72"
       is_visible="true"
       lpeversion="1" />
    <inkscape:path-effect
       effect="spiro"
       id="path-effect71"
       is_visible="true"
       lpeversion="1" />
    <inkscape:path-effect
       effect="spiro"
       id="path-effect70"
       is_visible="true"
       lpeversion="1" />
    <inkscape:path-effect
       effect="bspline"
       id="path-effect69"
       is_visible="true"
       lpeversion="1.3"
       weight="33.333333"
       steps="2"
       helper_size="0"
       apply_no_weight="true"
       apply_with_weight="true"
       only_selected="false"
       uniform="false" />
    <inkscape:path-effect
       effect="spiro"
       id="path-effect58"
       is_visible="true"
       lpeversion="1" />
    <inkscape:path-effect
       effect="bspline"
       id="path-effect57"
       is_visible="true"
       lpeversion="1.3"
       weight="33.333333"
       steps="2"
       helper_size="0"
       apply_no_weight="true"
       apply_with_weight="true"
       only_selected="false"
       uniform="false" />
    <rect
       x="131.35188"
       y="227.30399"
       width="608.31763"
       height="406.16614"
       id="rect55" />
    <inkscape:path-effect
       effect="bspline"
       id="path-effect47"
       is_visible="true"
       lpeversion="1.3"
       weight="33.333333"
       steps="2"
       helper_size="0"
       apply_no_weight="true"
       apply_with_weight="true"
       only_selected="false"
       uniform="false" />
    <linearGradient
       id="swatch39"
       inkscape:swatch="solid">
      <stop
         style="stop-color:#000000;stop-opacity:1;"
         offset="0"
         id="stop39" />
    </linearGradient>
    <linearGradient
       id="swatch38">
      <stop
         style="stop-color:#000000;stop-opacity:1;"
         offset="0"
         id="stop38" />
    </linearGradient>
    <linearGradient
       id="swatch36"
       inkscape:swatch="solid">
      <stop
         style="stop-color:#c6e9af;stop-opacity:1;"
         offset="0"
         id="stop36" />
    </linearGradient>
    <linearGradient
       id="swatch30"
       inkscape:swatch="solid">
      <stop
         style="stop-color:#b3b3b3;stop-opacity:1;"
         offset="0"
         id="stop30" />
    </linearGradient>
    <linearGradient
       id="swatch26"
       inkscape:swatch="solid">
      <stop
         style="stop-color:#000000;stop-opacity:1;"
         offset="0"
         id="stop26" />
    </linearGradient>
    <linearGradient
       id="swatch20"
       inkscape:swatch="solid">
      <stop
         style="stop-color:#000000;stop-opacity:1;"
         offset="0"
         id="stop20" />
    </linearGradient>
    <linearGradient
       id="swatch19"
       inkscape:swatch="solid">
      <stop
         style="stop-color:#000000;stop-opacity:1;"
         offset="0"
         id="stop19" />
    </linearGradient>
    <linearGradient
       inkscape:collect="always"
       xlink:href="#swatch19"
       id="linearGradient26"
       x1="53.971832"
       y1="113.99647"
       x2="155.04224"
       y2="113.99647"
       gradientUnits="userSpaceOnUse"
       gradientTransform="matrix(1.2313128,0,0,1.235525,-75.494046,15.325161)" />
    <linearGradient
       inkscape:collect="always"
       xlink:href="#swatch30"
       id="linearGradient30"
       x1="52.426109"
       y1="77.764084"
       x2="156.34149"
       y2="77.764084"
       gradientUnits="userSpaceOnUse"
       gradientTransform="matrix(1.2266387,0,0,1.1420245,-75.04825,23.318103)" />
    <linearGradient
       id="linearGradient39"
       x1="-762.92999"
       x2="-762.92999"
       y1="-43.438999"
       y2="65.526001"
       gradientTransform="matrix(1.852953,4.3176969e-8,0,0.47866036,1199.2011,197.56286)"
       gradientUnits="userSpaceOnUse"
       xlink:href="#linearGradient31314" />
    <linearGradient
       id="linearGradient31314">
      <stop
         stop-color="#b3b3b3"
         offset=".07717"
         id="stop1" />
      <stop
         stop-color="#d2d2d2"
         offset=".2492"
         id="stop2" />
      <stop
         stop-color="#9c9c9c"
         offset=".40957"
         id="stop3" />
      <stop
         stop-color="#afafaf"
         offset=".61817"
         id="stop4" />
      <stop
         stop-color="#d0d0d0"
         offset=".77894"
         id="stop5" />
      <stop
         stop-color="#989898"
         offset=".95498"
         id="stop6" />
    </linearGradient>
    <linearGradient
       id="linearGradient48503-5-4"
       x1="32.603001"
       x2="77.553001"
       y1="49.264999"
       y2="49.025002"
       gradientTransform="matrix(3.3127327,0,0,2.7459552,-76.754906,-28.188024)"
       gradientUnits="userSpaceOnUse">
      <stop
         stop-color="#424242"
         offset="0"
         id="stop19-2" />
      <stop
         stop-color="#828282"
         offset=".2"
         id="stop20-4" />
      <stop
         stop-color="#929292"
         offset=".4"
         id="stop21" />
      <stop
         stop-color="#a5a5a5"
         offset=".6"
         id="stop22" />
      <stop
         stop-color="#878787"
         offset=".79602"
         id="stop23" />
      <stop
         stop-color="#2d2d2d"
         offset="1"
         id="stop24" />
    </linearGradient>
    <clipPath
       clipPathUnits="userSpaceOnUse"
       id="clipPath275">
      <path
         id="path276"
         style="fill:#ff0000;fill-opacity:1;fill-rule:nonzero;stroke:none;stroke-width:0.264583"
         d="M 128.85249,192.61675 V 327.0251 H 361.69897 V 192.61675 Z m 46.88121,78.41227 0.001,0.003 c 0.52404,0 1.0941,0.5275 1.20324,1.57665 0.0732,0.70305 0.18304,1.40212 0.28527,2.10168 0.12627,-0.11401 0.32924,-0.0565 0.40965,0.25011 0.0279,0.10615 0.048,0.21377 0.0622,0.32195 0.0436,0.0249 0.0438,0.0895 0.0365,0.17105 0.003,0.003 0.005,0.004 0.008,0.007 0.0548,0.0523 0.0122,0.14063 -0.0148,0.22273 0.006,0.21971 5.1e-4,0.44046 -0.004,0.65887 -0.005,0.0702 -0.0117,0.11874 -0.0198,0.17002 0.0738,0.0692 0.0604,0.17527 0.0681,0.2744 0.003,-0.003 0.006,-0.007 0.009,-0.0103 0.005,-0.005 0.009,-0.008 0.0138,-0.0124 -0.001,-0.0111 -0.002,-0.0222 -0.003,-0.0315 0.001,0 0.002,0.003 0.004,0.003 0.01,0.003 0.0198,0.003 0.0296,0.003 0.14662,-0.12946 0.24992,-0.20105 0.32179,-0.22944 0.0522,-0.40169 0.0881,-0.80479 0.11055,-1.20923 0.0134,-0.4572 0.0271,-0.91762 -0.0237,-1.37304 -0.0329,-0.29496 0.11468,-0.45709 0.26257,-0.44907 0.11503,0.006 0.23002,0.11521 0.2596,0.34416 0.0557,0.43114 0.0511,0.86786 0.0395,1.30225 0.017,-0.16849 0.0361,-0.3367 0.0513,-0.5054 0.0254,-0.30398 0.0582,-0.60859 0.0652,-0.91363 0.006,-0.26368 0.1414,-0.39533 0.2744,-0.39533 0.133,0 0.26362,0.13157 0.25862,0.39533 -2.7e-4,0.0198 -0.004,0.0396 -0.004,0.0594 0.0301,-0.0111 0.0614,-0.016 0.0918,-0.0134 0.13268,0.0122 0.25252,0.15549 0.22702,0.41806 -0.024,0.24741 -0.0486,0.49441 -0.0642,0.74259 -0.0195,0.33205 -0.0767,0.65992 -0.12141,0.98909 -0.0316,0.25998 -0.0752,0.51843 -0.1293,0.77463 -0.0626,0.26032 -0.11986,0.5218 -0.1836,0.78186 -0.0727,0.26863 -0.13951,0.53915 -0.20431,0.80977 -0.062,0.2508 -0.12484,0.50092 -0.18163,0.75293 -0.0563,0.2599 -0.12009,0.51842 -0.17669,0.77824 -0.0513,0.25588 -0.0959,0.51237 -0.15596,0.76637 -0.0282,0.13428 -0.0609,0.26768 -0.0888,0.40204 -0.10706,0.51662 -0.62856,0.408 -0.52117,-0.10852 0.0289,-0.13914 0.0616,-0.27745 0.0908,-0.41651 0.0436,-0.18426 0.0786,-0.36985 0.1145,-0.55553 -0.14038,-0.0228 -0.24817,-0.18045 -0.16879,-0.44958 0.0311,-0.10554 0.0623,-0.21085 0.0938,-0.31626 -0.16836,0.11332 -0.40268,-0.0228 -0.37114,-0.37931 0.0399,-0.45152 0.0769,-0.90368 0.0869,-1.35702 1.3e-4,-0.0153 -4.8e-4,-0.0307 0,-0.046 -0.008,0.0674 -0.009,0.13529 -0.0178,0.20257 -0.0204,0.16428 -0.0867,0.2707 -0.16582,0.32298 0.0111,0.0653 0.012,0.14289 0.0118,0.25735 0,0.0325 0.0336,0.0932 -0.006,0.0971 -0.0412,0.005 -0.042,0.004 -0.077,0.009 0.0214,0.0714 0.0203,0.16658 -0.0148,0.28371 -0.08,0.2667 -0.15985,0.53874 -0.30501,0.77824 -0.072,0.0198 -0.14277,0.0351 -0.21518,0.0589 h -0.001 c -0.10564,0.0804 -0.22593,0.0779 -0.40963,-0.0677 -0.0176,0.0106 -0.0344,0.023 -0.0523,0.0331 -0.0101,-0.007 -0.0208,-0.0128 -0.0316,-0.0186 -0.02,0.11901 -0.14711,0.22537 -0.37508,0.2217 -0.18365,0.2954 -0.40985,0.67672 -0.66431,0.88677 -0.0514,0.0424 -0.11121,0.0733 -0.16681,0.11007 -0.0668,0.0122 -0.13288,0.0447 -0.20038,0.0367 -0.2557,-0.0295 -0.33914,-0.26337 -0.36423,-0.47904 -0.0198,-0.19878 -0.0462,-0.39701 -0.0701,-0.59532 -0.0126,-0.0911 -0.0291,-0.18165 -0.0444,-0.27233 -0.14331,0.0377 -0.3132,-0.0814 -0.33166,-0.37001 -0.007,-0.11285 -0.007,-0.22544 -0.009,-0.33847 -0.003,-0.13284 -0.007,-0.26596 -0.0237,-0.39791 -0.0191,-0.15253 -0.0475,-0.30357 -0.0602,-0.45683 -0.0176,-0.16687 -0.0414,-0.33311 -0.0572,-0.50022 -0.0237,-0.17384 -0.0527,-0.34719 -0.0701,-0.52194 -0.0221,-0.17695 -0.0332,-0.3552 -0.0632,-0.53123 -0.0326,-0.16279 -0.0597,-0.32612 -0.0928,-0.48886 -0.0227,-0.12991 -0.0553,-0.25709 -0.0869,-0.38499 h -0.001 c -0.0712,-0.28811 0.0598,-0.46061 0.21025,-0.46509 0.0352,0 0.0716,0.007 0.10661,0.0258 0.004,-0.2236 -0.007,-0.44842 0.0395,-0.66715 h 0.001 c 0.0474,-0.2259 0.16858,-0.32577 0.2823,-0.32297 0.14622,0.004 0.28004,0.17722 0.22999,0.46974 -0.0228,0.13388 -0.0337,0.26886 -0.0395,0.40462 0.0249,0.0111 0.052,0.0177 0.076,0.031 0.0192,-0.004 0.0388,-0.007 0.0582,-0.01 5.1e-4,-0.003 2.8e-4,-0.006 0.002,-0.009 0.0143,-0.0958 0.0296,-0.42964 0.18952,-0.44493 h 0.0346 c 0.005,0 0.009,0.003 0.0128,0.004 -0.0793,-0.53909 -0.16999,-1.07648 -0.20828,-1.61954 -0.0741,-1.05111 0.40352,-1.57547 0.92686,-1.57613 z m 17.84437,1.46193 c 0.18605,2.1e-4 0.38845,0.18626 0.42445,0.55758 0.0283,0.29213 0.0641,0.58355 0.0908,0.87592 0.007,0.26522 0.0458,0.52395 0.0997,0.7829 0.0447,0.24776 0.0868,0.49597 0.13227,0.74362 0.072,0.33399 0.15973,0.66452 0.23493,0.99787 0.0763,0.31369 0.154,0.6268 0.2211,0.94258 0.047,0.22362 0.0692,0.45094 0.11055,0.67541 0.0237,0.1234 0.04,0.24834 0.0543,0.37311 0.0848,0.74129 -0.6649,0.82562 -0.7482,0.0848 -0.0121,-0.10755 -0.0269,-0.2151 -0.0474,-0.32143 -0.0401,-0.21794 -0.0622,-0.43786 -0.10562,-0.65526 -0.066,-0.31277 -0.14522,-0.62306 -0.22012,-0.93379 -0.0772,-0.34314 -0.16854,-0.68261 -0.24084,-1.02681 -0.0444,-0.24199 -0.0853,-0.48437 -0.12832,-0.72657 -0.017,-0.0821 -0.0186,-0.16616 -0.0326,-0.24857 -0.0187,-0.0175 -0.0332,-0.0391 -0.0425,-0.0651 -0.0145,-0.0416 -0.0267,-0.0834 -0.0395,-0.12506 -0.0113,-0.0557 -0.013,-0.11153 -0.0178,-0.16743 -0.008,-0.0666 -0.0197,-0.13315 -0.0414,-0.19895 -0.0253,-0.0739 -0.0514,-0.14788 -0.0819,-0.22118 -0.0366,-0.088 0.0276,-0.14202 0.11154,-0.15399 -0.0232,-0.21049 -0.0481,-0.4208 -0.0632,-0.63201 -0.0265,-0.37211 0.14363,-0.55777 0.32968,-0.55758 z m -41.14827,0.55552 c 0.13329,0 0.26367,0.1321 0.25862,0.39584 -0.005,0.25299 0.006,0.50544 0.0178,0.75809 0.0184,0.28289 0.0637,0.56317 0.11153,0.84233 0.0489,0.27866 0.10063,0.55692 0.14313,0.83664 0.045,0.29406 0.0654,0.59091 0.079,0.8878 0.0227,0.29964 0.0415,0.59944 0.0533,0.89969 0.0133,0.3135 0.01,0.62703 0.0217,0.94051 0.0139,0.25318 0.0295,0.50622 0.0385,0.75964 0.007,0.20063 0.0111,0.40181 0.0118,0.60255 0.002,0.21 -0.0806,0.33584 -0.18163,0.37982 -0.0904,0.18074 -0.30266,0.19815 -0.4195,0.003 2.4e-4,0.005 0.001,0.01 0.001,0.015 0.0173,0.25252 0.0178,0.4535 -0.0543,0.69866 -0.061,0.14629 -0.0277,0.076 -0.10167,0.21188 -0.25238,0.46326 -0.73469,0.19242 -0.46491,-0.26097 0.0412,-0.0693 0.0231,-0.0327 0.0582,-0.11059 0.0483,-0.13448 0.0404,-0.27413 0.0346,-0.41444 -0.14975,0.0249 -0.30481,-0.0992 -0.28231,-0.39429 0.004,-0.0538 0.007,-0.10736 0.0118,-0.16123 0.007,-0.13377 0.0135,-0.26773 0.0217,-0.40153 -0.14348,0.0781 -0.34626,-0.0233 -0.38793,-0.33331 -0.006,-0.0425 -0.0108,-0.0846 -0.0168,-0.12713 -0.0503,-0.35637 -0.10094,-0.71263 -0.14214,-1.07022 -0.0678,-0.48905 -0.15699,-0.97514 -0.20729,-1.46657 -0.041,-0.41259 -0.083,-0.82901 -0.0543,-1.24385 0.0155,-0.22487 0.12116,-0.34427 0.23393,-0.36691 -0.0329,-0.13052 -0.0662,-0.26093 -0.10069,-0.39119 -0.0759,-0.28686 0.0535,-0.45695 0.20533,-0.45992 0.11597,-0.003 0.24327,0.0958 0.30401,0.31058 v -0.25012 h 0.001 c 0,-0.0899 0.0307,-0.14286 0.0563,-0.20205 -0.0287,-0.20884 0.0839,-0.34022 0.22209,-0.33538 0.0876,0.003 0.17907,0.0958 0.25663,0.22324 -0.003,-0.12605 -0.005,-0.25203 -0.003,-0.37827 h -0.001 c 0.005,-0.26373 0.14111,-0.39584 0.27441,-0.39584 z m 62.83435,0.009 c 0.4407,-0.0143 0.79207,0.46307 0.53993,1.28778 -0.0911,0.29808 -0.2538,0.53884 -0.46195,0.73794 0.016,0.1216 0.0166,0.2472 0.01,0.11885 -0.0132,-0.0305 -0.0263,-0.061 -0.0395,-0.0915 -0.16299,0.14986 -0.35215,0.27593 -0.55671,0.38447 -0.0517,0.0212 -0.10325,0.0425 -0.15497,0.0636 -0.12255,0.49154 -0.26747,0.86646 -0.55277,0.2775 -0.003,-0.006 -0.006,-0.0125 -0.009,-0.0181 -0.13225,0 -0.26269,-0.0212 -0.39187,-0.0873 -0.0885,-0.40426 -0.25651,-0.79854 -0.26651,-1.21232 -0.003,-0.127 0.57605,-0.32559 0.69589,-0.36742 0.11104,-0.0476 0.23373,-0.0989 0.27835,-0.21911 0.21819,-0.59023 0.58743,-0.86248 0.9091,-0.87333 z m -25.1211,0.16227 h 0.001 c 0.35626,0.008 0.74297,0.34245 0.85284,1.03301 0.0902,0.56719 0.14705,1.13897 0.22505,1.7079 0.0914,0.42444 0.24484,0.83029 0.38101,1.24127 0.16043,0.46863 0.27563,0.95217 0.39582,1.43247 0.0204,0.0967 0.038,0.19385 0.0563,0.29094 0.0275,-0.0439 0.0884,-0.0661 0.15201,-0.0656 0.0848,5.3e-4 0.17365,0.0419 0.19347,0.12868 0.0185,0.0808 0.0313,0.16198 0.0474,0.24288 0.0187,0.0804 0.0329,0.16094 0.0434,0.24184 0.0183,0.14163 -0.18515,0.18305 -0.29415,0.11266 -0.008,0.002 -0.004,0.0141 -0.0118,0.015 0.0496,0.25295 0.10886,0.50415 0.14708,0.75913 0.0842,0.46125 0.14675,0.92563 0.20137,1.39113 0.11429,0.97415 -0.493,1.38314 -0.97228,1.12861 -0.41772,0.19722 -0.97165,-0.10634 -1.04037,-0.98753 -0.0332,-0.42437 -0.0209,-0.21093 -0.0375,-0.64079 -0.0306,-0.6753 -0.0572,-1.35379 -0.16484,-2.0221 -0.0824,-0.41897 -0.17455,-0.83526 -0.27541,-1.25005 -0.10696,-0.46082 -0.20578,-0.92169 -0.24478,-1.39423 -0.0692,-0.40346 -0.16991,-0.7987 -0.27047,-1.19528 -0.0776,-0.30599 -0.0546,-0.54559 0.003,-0.74776 -0.0113,-0.0795 -0.0214,-0.15891 -0.0346,-0.23823 -0.12172,-0.78298 0.24287,-1.19242 0.64654,-1.18339 z m 7.25402,1.079 c 0.0894,8e-4 0.18201,0.0454 0.18459,0.13798 0.002,0.069 0,0.1378 -0.008,0.2067 -0.005,0.0765 -0.0165,0.15261 -0.0365,0.22841 0.006,0.0234 0.0114,0.0467 0.0158,0.0703 0.018,0.0901 0.0179,0.18057 -0.006,0.27027 -0.0242,0.0855 -0.0741,0.16771 -0.12141,0.25011 -0.0228,0.0402 -0.0448,0.0803 -0.0681,0.12041 -0.0778,0.13387 -0.29077,0.13749 -0.34844,0.0553 -0.11854,0.0358 -0.25181,0.0158 -0.21419,-0.10903 0.0136,-0.045 0.0272,-0.0905 0.0513,-0.13436 0.043,-0.0722 0.0951,-0.14299 0.14707,-0.21343 -0.058,-0.0205 -0.0997,-0.0647 -0.0918,-0.13229 0.0142,-0.1211 0.0305,-0.24191 0.0316,-0.36328 5e-4,-0.0857 0.0777,-0.13205 0.1599,-0.13901 -0.004,-0.0136 -0.006,-0.0263 -0.0109,-0.0398 -0.0328,-0.0976 0.0526,-0.14978 0.14905,-0.14986 v -5.3e-4 c 0.005,-2e-5 0.01,0.003 0.0148,0.004 0.0321,-0.0412 0.0912,-0.0615 0.15102,-0.0615 z m -15.58594,0.74104 c 0.28466,5.3e-4 0.53732,0.29631 0.4432,0.84853 -0.0637,0.37404 -0.11508,0.74977 -0.19248,1.12138 -0.007,0.0354 -0.015,0.0706 -0.0227,0.10593 0.003,0.0233 0.0155,0.0343 0.0158,0.061 0.004,0.34716 -0.0379,0.69184 -0.0849,1.03508 -0.0369,0.19751 -0.0558,0.39992 -0.11351,0.59325 -0.0125,0.0416 -0.0208,0.0869 -0.0464,0.12195 -0.0425,0.0581 -0.0825,0.1604 -0.15398,0.15141 -0.003,0 -0.006,-0.003 -0.01,-0.003 -0.0105,0.086 -0.0207,0.17196 -0.0306,0.25787 -0.0542,0.46908 -0.29591,0.70349 -0.53598,0.72553 -0.0654,0.17869 -0.13196,0.35694 -0.20334,0.5333 -0.19789,0.48906 -0.69242,0.28857 -0.49453,-0.2005 0.0847,-0.20916 0.16679,-0.41963 0.24184,-0.63252 -0.0631,-0.1378 -0.0927,-0.32093 -0.0661,-0.54829 0.0483,-0.41608 0.0961,-0.83422 0.20038,-1.24075 0.0831,-0.39415 0.17909,-0.78526 0.26059,-1.17977 0.0729,-0.34246 0.11647,-0.69003 0.17767,-1.03456 0.0865,-0.48695 0.36358,-0.71651 0.61495,-0.71624 z m 32.60808,0.74673 c -0.0258,0.003 -0.0513,0.005 -0.077,0.008 0.0223,1.6e-4 0.0448,0 0.0671,0 0.004,0 0.0108,-0.008 0.01,-0.007 z m -36.74196,1.06866 c -0.006,0.01 -0.0109,0.019 -0.0158,0.0289 0.005,-0.003 0.009,-0.003 0.0138,-0.005 0.008,-0.003 0.006,-0.0313 0.002,-0.0243 z m -1.63361,1.01493 c 0.003,0.0396 0.006,0.0792 0.009,0.11885 0.009,-0.0325 0.0186,-0.0624 0.0277,-0.0946 -0.0126,-0.006 -0.024,-0.0175 -0.0365,-0.0243 z m 23.5714,0.1912 c 0.16228,0.003 0.31714,0.0871 0.34054,0.25218 0.002,-0.003 0.003,-0.007 0.005,-0.0103 0.08,-0.14565 0.23588,-0.21113 0.38002,-0.21291 0.21077,-0.003 0.39785,0.13045 0.29416,0.3452 -0.11353,0.23512 -0.16298,0.47766 -0.23098,0.71727 -0.0881,0.29879 -0.30175,0.58015 -0.52809,0.85628 -0.27255,0.33248 -0.90361,0.20179 -0.68404,-0.11886 -0.12336,-0.0396 -0.22413,-0.11524 -0.20038,-0.25683 3.3e-4,-0.002 -2.5e-4,-0.004 0,-0.006 -0.0215,0.0561 -0.0391,0.1124 -0.0553,0.16898 -0.0167,0.0675 -0.009,0.0343 -0.0227,0.10129 -0.0378,0.18546 -0.39643,0.16531 -0.35831,-0.0202 0.015,-0.0725 0.007,-0.0365 0.0247,-0.10904 0.0305,-0.10626 0.0657,-0.21207 0.12042,-0.31574 0.0462,-0.10145 0.0866,-0.20396 0.12833,-0.30593 0.0356,-0.0975 0.0704,-0.19483 0.0908,-0.29353 0.0185,-0.0889 0.0273,-0.1788 0.0296,-0.2682 0.003,-0.0933 0.0937,-0.13952 0.18359,-0.13952 0.0251,0 0.0501,0.004 0.0731,0.0108 0.0105,-0.012 0.0177,-0.0285 0.0316,-0.0367 -1.6e-4,-0.0202 0.009,-0.0413 0.008,-0.0615 -0.0121,-0.19808 0.18103,-0.30051 0.37016,-0.29714 z m -24.46668,1.15135 v 5.3e-4 c 0.0104,0.0639 0.0226,0.12756 0.0316,0.19172 0.0187,0.15423 0.0377,0.3082 0.0553,0.4625 0.0138,-0.0145 0.0338,-0.0387 0.0977,-0.12299 0.069,-0.0911 0.12678,-0.1896 0.18952,-0.28525 -0.011,-0.003 -0.0216,-0.004 -0.0326,-0.006 -0.0396,-0.008 -0.0861,-0.004 -0.11746,-0.0294 -0.065,-0.0524 -0.11565,-0.12057 -0.16878,-0.18552 -0.0175,-0.01 -0.0387,-0.0137 -0.0553,-0.0259 z m 0.44814,0.13023 c -0.009,0.005 -0.0174,0.01 -0.0267,0.0145 -10e-4,0.003 -0.002,0.003 -0.003,0.005 0.009,-0.003 0.0233,-0.008 0.0266,-0.0145 0.001,-0.003 0.002,-0.003 0.003,-0.005 z" />
    </clipPath>
    <linearGradient
       inkscape:collect="always"
       xlink:href="#linearGradient286"
       id="linearGradient287"
       x1="2.0521797"
       y1="112.52074"
       x2="16.68236"
       y2="112.52074"
       gradientUnits="userSpaceOnUse" />
    <inkscape:path-effect
       effect="simplify"
       id="path-effect127-1"
       is_visible="true"
       lpeversion="1.3"
       threshold="5000"
       steps="1"
       smooth_angles="360"
       helper_size="0"
       simplify_individual_paths="false"
       simplify_just_coalesce="false" />
    <inkscape:path-effect
       effect="spiro"
       id="path-effect128-1"
       is_visible="true"
       lpeversion="1" />
    <inkscape:path-effect
       effect="bspline"
       id="path-effect125-1"
       is_visible="true"
       lpeversion="1.3"
       weight="33.333333"
       steps="2"
       helper_size="0"
       apply_no_weight="true"
       apply_with_weight="true"
       only_selected="false"
       uniform="false" />
    <inkscape:path-effect
       effect="bspline"
       id="path-effect125-2"
       is_visible="true"
       lpeversion="1.3"
       weight="33.333333"
       steps="2"
       helper_size="0"
       apply_no_weight="true"
       apply_with_weight="true"
       only_selected="false"
       uniform="false" />
  </defs>
  <rect
     x="30.463753"
     y="57.392059"
     width="151.51787"
     height="109.27045"
     ry="5.2659965"
     fill="url(#linearGradient48503-5-4)"
     stroke-linecap="square"
     stroke-width="0.90913"
     style="mix-blend-mode:normal;fill:#e5ffd5;stroke:#1c1c1c;stroke-opacity:0.94581282;paint-order:markers stroke fill;stroke-width:1;stroke-dasharray:none"
     id="rect34" />
  <g
     inkscape:label="图层 1"
     inkscape:groupmode="layer"
     id="layer1"
     transform="translate(51.760563,-34.507042)">
    <g
       id="g2">
      <rect
         style="opacity:1;fill:url(#linearGradient30);fill-opacity:1;fill-rule:evenodd;stroke:#000000;stroke-width:1.18359;stroke-linejoin:bevel;stroke-dasharray:none;stroke-opacity:1"
         id="rect5"
         width="123.05258"
         height="16.044643"
         x="-8.5333385"
         y="104.10426" />
      <rect
         style="fill:#000000;fill-rule:evenodd;stroke-width:1.76971;stroke-linejoin:bevel"
         id="rect6"
         width="1.6071869"
         height="15.903262"
         x="26.507807"
         y="104.10172"
         transform="translate(-1.1458333e-6)" />
      <rect
         style="fill:#000000;fill-rule:evenodd;stroke-width:1.76971;stroke-linejoin:bevel"
         id="rect6-7"
         width="1.6071869"
         height="15.903262"
         x="76.80883"
         y="103.69002"
         transform="translate(-1.1458333e-6)" />
    </g>
    <rect
       style="mix-blend-mode:normal;fill:#c6e9af;fill-opacity:1;fill-rule:evenodd;stroke:url(#linearGradient26);stroke-width:1.23342"
       id="rect4"
       width="123.21798"
       height="70.346603"
       x="-8.4221821"
       y="120.99738" />
    <g
       id="g1">
      <text
         xml:space="preserve"
         style="font-size:8.46667px;line-height:0;text-align:start;writing-mode:lr-tb;direction:ltr;text-anchor:start;opacity:1;fill:#000000;fill-opacity:1;fill-rule:evenodd;stroke:none;stroke-width:1;stroke-dasharray:none;stroke-opacity:1"
         x="1.7253565"
         y="115.59859"
         id="text54"><tspan
           sodipodi:role="line"
           id="tspan54"
           style="stroke-width:1;stroke:none;stroke-opacity:1;fill:#000000;fill-opacity:1"
           x="1.7253565"
           y="115.59859">FID</tspan></text>
      <text
         xml:space="preserve"
         style="font-size:8.46667px;line-height:0;text-align:start;writing-mode:lr-tb;direction:ltr;text-anchor:start;opacity:1;fill:#000000;fill-opacity:1;fill-rule:evenodd;stroke:none;stroke-width:1;stroke-dasharray:none;stroke-opacity:1"
         x="80.698509"
         y="116.12484"
         id="text53"
         transform="translate(-1.1458333e-6)"><tspan
           sodipodi:role="line"
           id="tspan53"
           style="stroke-width:1"
           x="80.698509"
           y="116.12484">Results</tspan></text>
      <text
         xml:space="preserve"
         style="font-size:8.46667px;line-height:0;text-align:start;writing-mode:lr-tb;direction:ltr;text-anchor:start;opacity:1;fill:#000000;fill-opacity:1;fill-rule:evenodd;stroke:none;stroke-width:1;stroke-dasharray:none;stroke-opacity:1"
         x="32.781681"
         y="115.59859"
         id="text52"
         transform="translate(-1.1458333e-6)"><tspan
           sodipodi:role="line"
           id="tspan52"
           style="stroke-width:1"
           x="32.781681"
           y="115.59859">Spectrum</tspan></text>
    </g>
  </g>
  <g
     id="g3">
    <rect
       style="mix-blend-mode:normal;fill:#000000;fill-rule:evenodd;stroke:#000000;stroke-width:0.610609"
       id="rect3-34-1-9"
       width="7.2907987"
       height="0.14291199"
       x="100.47667"
       y="140.70862"
       rx="0.30231702"
       ry="0.14291199" />
    <rect
       style="mix-blend-mode:normal;fill:#000000;fill-rule:evenodd;stroke:#000000;stroke-width:0.610609"
       id="rect3-34-1-4"
       width="7.2907987"
       height="0.14291199"
       x="100.01862"
       y="112.79064"
       rx="0.30231702"
       ry="0.14291199" />
    <rect
       style="mix-blend-mode:normal;fill:#000000;fill-rule:evenodd;stroke:#000000;stroke-width:0.610609"
       id="rect3-34-1-1"
       width="7.2907987"
       height="0.14291199"
       x="48.437542"
       y="160.71466"
       rx="0.30231702"
       ry="0.14291199"
       transform="translate(51.760562,-34.507043)" />
    <rect
       style="mix-blend-mode:normal;fill:#000000;fill-rule:evenodd;stroke:#000000;stroke-width:0.610609"
       id="rect3-34-1"
       width="7.2907987"
       height="0.14291199"
       x="99.802963"
       y="100.1236"
       rx="0.30231702"
       ry="0.14291199" />
    <rect
       style="fill:#000000;fill-rule:evenodd;stroke:#000000;stroke-width:0.996982"
       id="rect1"
       width="0.24429291"
       height="69.211983"
       x="102.90746"
       y="86.514755"
       rx="0.47596821"
       ry="5.5478234"
       transform="matrix(1,0,0.00711042,0.99997472,0,0)" />
  </g>
  <path
     d="m 129.12987,192.61667 c 0.44329,0.0757 0.88473,0.16346 1.32292,0.26458 0.53632,2.57105 0.79222,5.16297 1.05833,7.77214 0.0659,0.6434 0.13219,1.28676 0.19947,1.93002 0.0415,0.39666 0.0822,0.79339 0.12196,1.19023 0.11951,1.14556 0.28404,2.27489 0.47406,3.411 0.31527,2.01824 0.4129,4.03608 0.49952,6.07366 0.0191,0.41623 0.0384,0.83245 0.0579,1.24867 0.0416,0.89583 0.0822,1.7917 0.12184,2.68762 0.0983,2.217 0.20238,4.43373 0.30589,6.65049 0.0366,0.78549 0.0731,1.57098 0.10948,2.35647 0.16926,3.63613 0.35158,7.27143 0.54279,10.90646 0.0134,0.2544 0.0267,0.5088 0.0405,0.77091 0.0683,1.2984 0.13667,2.59679 0.20513,3.89517 0.39629,7.52032 0.77551,15.04101 1.11139,22.5643 0.0145,0.32422 0.029,0.64844 0.0439,0.98248 0.14141,3.16886 0.28119,6.33779 0.41755,9.50688 0.34095,7.90979 0.76326,15.8111 1.26077,23.71257 0.0657,1.04786 0.12962,2.09582 0.19354,3.14379 0.10293,1.68339 0.20962,3.36651 0.31898,5.0495 0.0414,0.64331 0.0818,1.28668 0.12144,1.93011 0.24381,3.95302 0.58662,7.84245 1.26219,11.7467 0.0239,-0.17047 0.0478,-0.34095 0.0724,-0.51658 0.0319,-0.22779 0.0638,-0.45557 0.0967,-0.69026 0.0333,-0.23801 0.0667,-0.47601 0.10098,-0.72123 0.0678,-0.48351 0.13611,-0.96695 0.20469,-1.45034 0.60128,-4.35367 0.94896,-8.70402 1.18184,-13.09166 0.0811,-1.52402 0.16642,-3.04779 0.25231,-4.57154 0.0258,-0.45855 0.0258,-0.45855 0.0522,-0.92636 0.15453,-2.70085 0.34854,-5.39783 0.55242,-8.09531 0.38925,-5.17296 0.65179,-10.3509 0.91041,-15.53181 0.18084,-3.61277 0.37005,-7.2232 0.6384,-10.83067 0.13076,-1.79198 0.21515,-3.58315 0.28778,-5.37822 0.22908,-5.55281 0.66286,-11.09495 1.06337,-16.63749 0.0926,-1.28433 0.18274,-2.5688 0.27001,-3.85351 0.47761,-7.01121 1.00147,-13.67871 3.31233,-20.36335 0.43656,0.0873 0.87312,0.17462 1.32291,0.26458 0.53654,2.11771 0.95837,4.24928 1.33946,6.39961 0.0429,0.23655 0.0858,0.4731 0.12996,0.71682 0.68286,3.93059 0.99364,7.91529 1.29217,11.89016 0.0335,0.43815 0.0671,0.87629 0.10071,1.31443 0.0875,1.14276 0.17403,2.28559 0.26035,3.42843 0.0692,0.91413 0.13917,1.8282 0.20916,2.74228 1.0996,14.36218 1.0996,14.36218 1.43069,20.45527 0.14432,2.56653 0.30459,5.12983 0.54571,7.68946 0.021,0.22593 0.0419,0.45187 0.0636,0.68465 0.0917,1.08126 0.0917,1.08126 0.44907,2.09347 0.0317,0.45302 0.0478,0.90718 0.0564,1.36123 0.007,0.28686 0.0141,0.57373 0.0213,0.86928 0.007,0.31475 0.0149,0.62951 0.0225,0.95379 0.11945,3.99859 0.44913,7.96428 0.83347,11.94495 0.0921,0.95444 0.18039,1.90921 0.26765,2.86411 0.0687,0.74714 0.13928,1.49408 0.21047,2.24098 0.0494,0.52181 0.0972,1.04376 0.14503,1.56572 0.0309,0.315 0.0618,0.63001 0.0936,0.95456 0.0262,0.27554 0.0524,0.55107 0.0795,0.83496 0.1231,0.75815 0.36674,1.36538 0.65129,2.07501 0,0.34925 0,0.6985 0,1.05833 0.17462,0 0.34925,0 0.52916,0 0.0362,-0.30449 0.0723,-0.60897 0.10956,-0.92268 0.11628,-0.9312 0.26193,-1.85482 0.42013,-2.77992 0.61846,-3.66232 0.96193,-7.35307 1.3224,-11.04792 0.0351,-0.35508 0.0702,-0.71014 0.10534,-1.06521 0.42966,-4.34187 0.82806,-8.68446 1.14485,-13.03617 0.64759,-8.89463 1.40319,-17.79107 2.60655,-26.62921 0.11155,-0.87161 0.20328,-1.74314 0.28874,-2.61767 0.26205,-2.59962 0.63302,-5.03032 1.50998,-7.50135 0.0741,-0.21327 0.14824,-0.42654 0.2246,-0.64628 0.22809,-0.58465 0.22809,-0.58465 0.73452,-1.48692 0.7214,-0.26562 0.7214,-0.26562 1.32292,-0.26459 1.90325,4.23182 2.62091,8.56989 3.07578,13.14649 0.0821,0.78031 0.16548,1.56047 0.24891,2.34064 0.0541,0.5069 0.10764,1.01385 0.16073,1.52086 0.18534,1.76574 0.40225,3.52485 0.64869,5.28316 0.36894,2.68926 0.61318,5.38875 0.85886,8.09136 0.22154,2.43173 0.4625,4.8602 0.72864,7.28754 0.0326,0.30347 0.0651,0.60693 0.0987,0.91959 0.0309,0.27703 0.0617,0.55406 0.0935,0.83948 0.0268,0.24262 0.0536,0.48525 0.0813,0.73523 0.0616,0.5912 0.0616,0.5912 0.35489,1.11065 0.0928,-0.17462 0.18554,-0.34925 0.28112,-0.52916 0.51263,-0.52917 0.51263,-0.52917 1.43867,-0.64493 0.92604,0.11576 0.92604,0.11576 1.37356,0.43099 0.70445,0.97362 0.49631,2.24663 0.34623,3.38894 -0.44648,0.84335 -0.44648,0.84335 -1.05833,1.32291 -0.99565,0.16999 -1.25902,0.0426 -2.11667,-0.52916 0.17082,1.20516 0.3448,2.40981 0.52161,3.61412 0.0596,0.40889 0.11835,0.81791 0.17621,1.22705 0.0838,0.59149 0.17073,1.18245 0.25819,1.77341 0.0373,0.27009 0.0373,0.27009 0.0753,0.54564 0.1985,1.31189 0.58843,2.45704 1.08538,3.68769 0.93138,-2.01776 1.35732,-3.97558 1.67018,-6.1681 0.0479,-0.30508 0.0958,-0.61016 0.14521,-0.92449 0.24565,-1.64881 0.29737,-2.84294 -0.16175,-4.44986 -0.0661,-0.62838 -0.0661,-0.62838 0.31419,-1.10794 0.13643,-0.10368 0.27286,-0.20737 0.41342,-0.31419 -0.26194,-0.39291 -0.26194,-0.39291 -0.52917,-0.79375 0.0992,-0.71107 0.0992,-0.71107 0.26458,-1.32292 0.34925,-0.0873 0.6985,-0.17462 1.05834,-0.26458 0.0194,-0.22766 0.0194,-0.22766 0.0393,-0.45992 0.59048,-6.70914 0.59048,-6.70914 1.13792,-9.75134 0.15387,-0.95164 0.27029,-1.90361 0.38473,-2.86062 0.32436,-2.66143 0.71244,-5.31376 1.17127,-7.95529 0.0619,-0.36186 0.12133,-0.72413 0.1781,-1.08682 0.44392,-2.81197 1.38365,-4.90105 2.90954,-7.25476 0.63284,0.0866 0.63284,0.0866 1.32292,0.26458 0.45785,0.73174 0.45785,0.73174 0.84336,1.65365 0.19389,0.45225 0.19389,0.45225 0.3917,0.91364 0.11631,0.28786 0.23261,0.57571 0.35244,0.8723 0.0839,0.18259 0.16784,0.36519 0.25431,0.55332 0.3934,1.10153 0.58294,2.22301 0.79162,3.37202 0.0478,0.2582 0.0957,0.51641 0.14496,0.78243 0.15581,0.84479 0.30936,1.68997 0.46275,2.53519 0.0528,0.28747 0.10553,0.57493 0.15989,0.87111 0.5664,3.08737 1.11219,6.17598 1.57851,9.28021 0.0359,0.23881 0.0718,0.47762 0.10874,0.72366 0.16678,1.11935 0.3284,2.23921 0.48373,3.3602 0.0292,0.20304 0.0584,0.40609 0.0886,0.61528 0.0777,0.54008 0.1524,1.0806 0.2268,1.62115 0.19997,0.90031 0.47084,1.4619 0.9918,2.21459 0.66727,1.0009 0.55917,1.50569 0.51263,2.69544 -0.0359,1.5752 0.077,2.77356 0.81029,4.18373 0.17462,0.0873 0.34925,0.17462 0.52917,0.26458 1.16381,-1.99511 1.60772,-4.11929 2.11666,-6.35 -0.17462,0 -0.34925,0 -0.52916,0 0,-0.17462 0,-0.34925 0,-0.52916 0.17462,-0.0873 0.34925,-0.17463 0.52916,-0.26459 0.18926,-0.69664 0.34593,-1.37888 0.48679,-2.08566 0.0444,-0.21337 0.0887,-0.42675 0.1344,-0.64659 0.14233,-0.68736 0.28149,-1.37531 0.42061,-2.06332 0.0926,-0.44963 0.18548,-0.89921 0.27853,-1.34876 0.34629,-1.67842 0.69013,-3.35726 1.01655,-5.03967 0.34561,-1.77263 0.71591,-3.51154 1.25153,-5.2367 0.0551,-0.18332 0.11017,-0.36664 0.16692,-0.55552 0.15599,-0.51589 0.31685,-1.03031 0.47801,-1.54461 0.0781,-0.27865 0.1562,-0.5573 0.23667,-0.84439 0.33585,-0.85327 0.75817,-1.36685 1.3839,-2.03295 0.19168,-0.20669 0.38336,-0.41337 0.58084,-0.62632 0.14666,-0.15348 0.29332,-0.30696 0.44442,-0.46509 0.75293,0.087 1.03291,0.23844 1.5689,0.78961 1.793,2.54909 2.45621,5.21419 3.1936,8.20622 0.0927,0.37338 0.18545,0.74674 0.27828,1.12009 0.0738,0.2971 0.0738,0.2971 0.1491,0.6002 0.10305,0.4147 0.20619,0.82937 0.30941,1.24402 0.25735,1.03479 0.51249,2.07 0.76228,3.10664 0.54908,2.25732 1.18181,4.45032 1.95699,6.64107 0.24811,0.78173 0.24811,0.78173 0.24811,1.57548 0.17462,0 0.34925,0 0.52916,0 0.0491,-0.16916 0.0982,-0.33833 0.14883,-0.51263 0.38034,-0.5457 0.38034,-0.5457 1.33945,-0.74414 0.29468,-0.0218 0.58936,-0.0437 0.89297,-0.0661 0.0667,-0.25069 0.0667,-0.25069 0.13468,-0.50643 1.17464,-4.36664 2.43787,-8.76709 4.11519,-12.97079 0.0739,-0.19662 0.14781,-0.39325 0.22396,-0.59583 0.61713,-1.47053 1.55049,-2.33722 2.93451,-3.12487 0.81287,-0.0991 1.09743,0.0973 1.73988,0.57399 1.62296,1.44391 2.19303,3.22372 2.89032,5.23031 0.24835,0.68979 0.50009,1.37833 0.75138,2.06705 0.0605,0.16758 0.1211,0.33516 0.18348,0.50782 0.59785,1.64738 1.28998,3.23947 2.01794,4.83242 0.34464,0.78876 0.62501,1.57831 0.88366,2.39883 0.72552,0.27206 0.72552,0.27206 1.5875,0.26458 0.989,-1.02087 1.60018,-2.03153 2.19728,-3.32796 0.076,-0.16179 0.15191,-0.32358 0.23017,-0.49027 0.32023,-0.68222 0.63504,-1.3669 0.95,-2.05157 2.81252,-6.08786 2.81252,-6.08786 5.3538,-7.09478 1.32189,0.1907 2.25766,0.91694 3.175,1.85208 0.7964,1.10364 1.45069,2.30024 2.11228,3.48764 0.59178,1.0585 1.22277,2.09321 1.85647,3.12694 0.10744,0.18588 0.21487,0.37176 0.32556,0.56328 0.56016,0.89734 0.91632,1.25986 1.9234,1.61953 0.93548,0.0167 0.93548,0.0167 1.57096,-0.5457 0.23272,-0.27558 0.45759,-0.55783 0.678,-0.84336 0.16371,-0.19918 0.32742,-0.39836 0.49609,-0.60358 0.84552,-1.03767 1.66449,-2.09325 2.46393,-3.16673 0.12722,-0.16883 0.25444,-0.33765 0.38551,-0.5116 0.23023,-0.30851 0.45599,-0.62044 0.67593,-0.93637 0.84733,-1.14573 1.75523,-1.63811 3.12229,-1.92547 1.75128,0.0834 3.08773,1.13256 4.2664,2.34818 0.21897,0.22306 0.43793,0.44611 0.66353,0.67593 1.68465,1.82921 1.68465,1.82921 1.68465,2.53214 0.22101,0.10642 0.22101,0.10642 0.44649,0.21498 0.61184,0.31419 0.61184,0.31419 1.22369,0.76067 0.97996,0.47858 1.51805,0.35771 2.56315,0.0827 1.13261,-0.68694 2.08054,-1.47437 3.04271,-2.38125 1.88572,-1.77734 3.2832,-2.75021 5.87768,-2.69958 2.1261,0.18899 3.72014,1.74259 5.36711,2.96416 1.35243,0.98659 2.22876,1.54437 3.96875,1.32292 1.48676,-0.34297 2.61373,-0.91608 3.88607,-1.7198 2.18035,-1.35272 3.51487,-1.97801 6.1681,-1.71979 1.31864,0.32688 2.51679,0.85169 3.7176,1.48208 2.16827,1.11723 4.16461,1.70092 6.60115,1.16376 1.15597,-0.38719 2.26766,-0.87426 3.38674,-1.3558 2.88655,-1.21995 4.93848,-0.86687 7.83926,0.0497 3.30474,1.03092 6.27153,1.25987 9.62958,0.29844 3.16849,-0.84791 6.77953,-1.05489 9.96838,-0.18294 3.35601,0.91172 6.95473,0.52879 10.32689,-0.11143 3.04917,-0.56172 7.52715,-0.99455 10.17832,0.77289 -0.0873,0.43656 -0.17463,0.87312 -0.26459,1.32292 -0.23037,-0.0275 -0.23037,-0.0275 -0.46541,-0.0556 -3.94854,-0.43704 -7.93846,-0.50725 -11.81394,0.40386 -2.68975,0.51219 -5.34317,0.35029 -7.97781,-0.3483 -3.69181,-0.96763 -6.8048,-0.58024 -10.48282,0.31768 -3.63642,0.87747 -6.52145,0.36495 -10.02239,-0.86752 -2.87947,-0.90367 -5.35865,-0.44333 -8.02018,0.85679 -2.1754,1.02523 -4.77821,1.26518 -7.10241,0.57775 -1.57017,-0.58321 -3.04442,-1.36624 -4.52892,-2.13631 -1.51294,-0.5242 -2.82,-0.66768 -4.32596,-0.0394 -0.73594,0.39921 -1.44315,0.82605 -2.15013,1.27447 -0.48029,0.29616 -0.96154,0.59078 -1.44384,0.88367 -0.20901,0.13163 -0.41802,0.26326 -0.63336,0.39887 -1.45548,0.75687 -3.25264,0.84241 -4.85158,0.58608 -1.48503,-0.69718 -2.73939,-1.71851 -4.03489,-2.71198 -1.19547,-0.9106 -2.24736,-1.42368 -3.75378,-1.67018 -1.85457,0.29283 -3.05649,1.72967 -4.39869,2.96002 -1.00819,0.92147 -1.93942,1.60637 -3.15847,2.21589 -0.18008,0.1146 -0.36016,0.22919 -0.5457,0.34726 -1.02587,0.36402 -1.90767,0.003 -2.86391,-0.42374 -1.96453,-1.07963 -3.48093,-2.80243 -4.9196,-4.49379 -0.71013,-0.80688 -1.36762,-1.39008 -2.38641,-1.74666 -0.82047,-0.041 -1.24946,0.1303 -1.98438,0.4961 -0.53788,0.52654 -0.53788,0.52654 -1.00872,1.17408 -0.18042,0.23534 -0.36085,0.47067 -0.54674,0.71314 -0.73534,0.994 -1.46682,1.99036 -2.18591,2.9962 -1.04106,1.42381 -1.78739,2.33011 -3.40238,3.05408 -1.22056,-0.0249 -2.12954,-0.44772 -3.175,-1.05834 -0.60151,-0.6997 -0.60151,-0.6997 -1.15755,-1.53789 -0.10019,-0.14977 -0.20037,-0.29954 -0.3036,-0.45385 -0.82822,-1.2575 -1.57292,-2.56001 -2.31039,-3.87205 -1.06689,-2.06567 -1.06689,-2.06567 -2.79343,-3.51238 -0.191,-0.0491 -0.38199,-0.0982 -0.57878,-0.14883 -1.20957,1.07208 -1.87325,2.21957 -2.59622,3.65456 -0.114,0.22058 -0.228,0.44117 -0.34546,0.66844 -0.55129,1.07125 -1.08873,2.14845 -1.61308,3.23313 -2.00363,4.13627 -2.00363,4.13627 -3.9119,5.40846 -0.9843,0.19139 -1.34597,-0.0136 -2.22209,-0.53124 -1.10138,-0.81638 -1.57202,-1.75376 -2.11047,-2.99103 -0.14718,-0.32327 -0.14718,-0.32327 -0.29733,-0.65306 -1.03237,-2.31648 -1.90344,-4.69648 -2.76708,-7.0798 -0.81741,-2.68602 -0.81741,-2.68602 -2.6572,-4.61987 -1.21269,0.9642 -1.58696,2.21251 -2.10013,3.62148 -0.0928,0.24902 -0.18554,0.49804 -0.28112,0.75461 -0.60333,1.64495 -1.13362,3.29891 -1.60326,4.98632 -0.54338,1.92789 -1.2176,3.80819 -1.89834,5.69132 -0.47696,1.33667 -0.87036,2.62748 -1.10309,4.02934 -0.19536,0.61414 -0.45226,0.88893 -0.95156,1.28984 -0.8555,0.15147 -1.22196,0.0617 -1.96577,-0.39274 -3.59911,-3.33464 -4.19049,-8.69186 -5.22048,-13.28446 -0.52684,-2.34743 -1.12695,-4.65222 -1.80958,-6.9603 -0.13821,-0.49047 -0.27609,-0.98103 -0.41342,-1.47174 -0.2771,-0.9242 -0.616,-1.69975 -1.17408,-2.49701 -0.26194,0.0873 -0.52388,0.17463 -0.79375,0.26459 -0.78238,1.73402 -1.21096,3.58277 -1.67019,5.42395 -0.0799,0.31909 -0.15979,0.63818 -0.2421,0.96693 -0.70068,2.86857 -1.2628,5.75691 -1.78083,8.66349 -0.33879,1.89476 -0.71525,3.76921 -1.16815,5.64023 -0.21374,0.94953 -0.3355,1.88531 -0.4304,2.85331 0.34925,0 0.6985,0 1.05833,0 0,0.26194 0,0.52388 0,0.79375 -0.24011,-0.0109 -0.48022,-0.0218 -0.7276,-0.0331 -0.88124,0.19936 -0.88124,0.19936 -1.16376,0.82992 -0.26785,0.69965 -0.51299,1.40442 -0.75447,2.11357 -0.16156,0.40622 -0.33168,0.8092 -0.51263,1.20716 -0.10999,0.25426 -0.10999,0.25426 -0.22221,0.51367 -0.46724,0.57173 -0.93516,0.57488 -1.64641,0.66042 -0.4015,-0.58154 -0.7973,-1.16583 -1.19063,-1.75287 -0.11357,-0.16337 -0.22715,-0.32673 -0.34416,-0.49505 -0.69842,-1.05318 -0.9911,-1.73796 -0.84646,-3.04375 -0.20737,-0.0218 -0.41474,-0.0436 -0.62839,-0.0661 -0.69453,-0.19844 -0.69453,-0.19844 -0.99942,-0.64596 -0.27106,-0.73823 -0.28541,-1.33071 -0.27388,-2.11563 0.003,-0.38626 0.003,-0.38626 0.005,-0.78032 0.0445,-0.62528 0.0445,-0.62528 0.30903,-0.88986 -0.0642,-1.72754 -0.36725,-3.45772 -0.63045,-5.16455 -0.0536,-0.35129 -0.0536,-0.35129 -0.1082,-0.70967 -0.11644,-0.7596 -0.23433,-1.51896 -0.35276,-2.27826 -0.0405,-0.26031 -0.0811,-0.52061 -0.1229,-0.78881 -0.54737,-3.49766 -1.11848,-6.99062 -1.76191,-10.47202 -0.0765,-0.41462 -0.15216,-0.82942 -0.22677,-1.24439 -0.38768,-2.14439 -0.82,-4.11391 -1.82409,-6.06522 -0.84404,0.92059 -1.02655,1.88079 -1.2299,3.07475 -0.0364,0.20094 -0.0728,0.40187 -0.11036,0.6089 -0.11878,0.66225 -0.23286,1.3252 -0.34646,1.98835 -0.0814,0.4641 -0.16278,0.9282 -0.24417,1.3923 -0.78013,4.50262 -1.4041,9.02382 -1.96983,13.55779 -0.0662,0.53033 -0.13334,1.06055 -0.20046,1.59076 -0.11735,0.9299 -0.23297,1.85998 -0.34713,2.79027 -0.0328,0.26684 -0.0657,0.53368 -0.0995,0.80861 -0.0289,0.24339 -0.0578,0.48679 -0.0876,0.73755 -0.0248,0.20788 -0.0497,0.41576 -0.0753,0.62994 -0.0978,1.13495 -0.0413,2.13661 0.21272,3.24786 -0.17156,0.0512 -0.34311,0.10232 -0.51986,0.15503 -0.1777,0.12347 -0.3554,0.24693 -0.53847,0.37414 -0.15916,0.80189 -0.15916,0.80189 -0.14883,1.75286 -0.17964,4.46583 -1.48601,8.36914 -3.02617,12.53464 -0.59409,-0.0153 -0.59409,-0.0153 -1.32292,-0.26458 -0.44822,-0.63461 -0.75943,-1.17384 -1.07797,-1.87173 -0.0915,-0.19866 -0.18293,-0.39732 -0.27716,-0.602 -1.1361,-2.66127 -1.42316,-5.47536 -1.77026,-8.32458 -0.0758,-0.5781 -0.15216,-1.15612 -0.22906,-1.73407 -0.21579,-1.64209 -0.41761,-3.28564 -0.6143,-4.93012 -0.0262,-0.21712 -0.0524,-0.43424 -0.0794,-0.65794 -0.34243,-2.84551 -0.64727,-5.68937 -0.83217,-8.54977 -0.11279,-1.63269 -0.31062,-3.2429 -0.53666,-4.8634 -0.21153,-1.53423 -0.39107,-3.07199 -0.5709,-4.61021 -0.0668,-0.57041 -0.13434,-1.14073 -0.20192,-1.71105 -0.24536,-2.08121 -0.47712,-4.16322 -0.69143,-6.24787 -0.0663,-0.63339 -0.13274,-1.26675 -0.19923,-1.90012 -0.0414,-0.40161 -0.0817,-0.80335 -0.12076,-1.2052 -0.26267,-2.70379 -0.75039,-5.21883 -1.53003,-7.82528 -0.52794,1.1508 -0.89949,2.13337 -1.05627,3.39928 -0.0383,0.30075 -0.0767,0.60151 -0.11621,0.91138 -0.0581,0.49378 -0.0581,0.49378 -0.11736,0.99755 -0.044,0.36026 -0.0881,0.72051 -0.13236,1.08074 -0.12209,1.00516 -0.23935,2.01084 -0.35513,3.01674 -0.0759,0.65877 -0.15288,1.31741 -0.22991,1.97605 -1.11633,9.5917 -1.93381,19.21 -2.70358,28.83493 -0.1836,2.29397 -0.37727,4.58688 -0.58085,6.87917 -0.021,0.23909 -0.0421,0.47819 -0.0637,0.72453 -1.02035,11.53831 -1.02035,11.53831 -2.23481,16.96948 -0.0398,0.1786 -0.0795,0.3572 -0.12051,0.54121 -0.63771,2.81322 -0.63771,2.81322 -1.28509,3.46061 -0.53847,-0.0403 -0.53847,-0.0403 -1.05834,-0.26458 -0.32115,-0.79589 -0.55774,-1.55859 -0.79375,-2.38125 -0.10262,-0.29791 -0.20524,-0.59581 -0.31097,-0.90274 -0.91161,-2.65699 -1.31382,-5.1986 -1.54628,-7.98975 -0.0392,-0.43042 -0.0789,-0.8608 -0.1189,-1.29115 -0.10284,-1.11794 -0.20009,-2.2363 -0.29616,-3.35485 -0.0993,-1.14297 -0.20451,-2.2854 -0.30892,-3.42792 -0.15102,-1.66503 -0.30071,-3.33017 -0.44475,-4.99582 -0.0289,-0.3327 -0.0578,-0.66541 -0.0876,-1.00819 -0.0461,-0.63212 -0.0614,-1.26661 -0.0614,-1.90042 -0.31923,-0.1146 -0.31923,-0.1146 -0.64492,-0.23151 -0.67799,-0.29765 -0.67799,-0.29765 -0.94258,-0.82682 -0.0391,-0.52266 -0.0585,-1.0469 -0.0661,-1.57096 -0.007,-0.2807 -0.0136,-0.5614 -0.0207,-0.8506 0.0868,-0.75344 0.0868,-0.75344 0.48162,-1.11208 0.68054,-0.74224 0.51386,-1.69474 0.49816,-2.651 -0.002,-0.23887 -0.004,-0.47774 -0.006,-0.72385 -0.0525,-2.80476 -0.30315,-5.59982 -0.55811,-8.39226 -0.23243,-2.58399 -0.39965,-5.16877 -0.54073,-7.75914 -0.25652,-4.70694 -0.59199,-9.40438 -0.97752,-14.10244 -0.0679,-0.82816 -0.13393,-1.65644 -0.19844,-2.48486 -0.16338,-7.92978 -0.16338,-7.92978 -2.05194,-15.38614 -0.77236,2.91822 -0.98747,5.78043 -1.14741,8.78259 -0.0743,1.39057 -0.15823,2.78057 -0.24165,4.17062 -0.0246,0.41446 -0.0246,0.41446 -0.0497,0.83729 -0.1381,2.28168 -0.32922,4.55507 -0.54561,6.83046 -0.51612,5.48613 -0.82435,10.98647 -1.14773,16.48672 -0.0398,0.67461 -0.08,1.3492 -0.1204,2.02378 -0.24907,4.15906 -0.47121,8.3187 -0.66771,12.48057 -0.41617,8.79728 -0.95588,17.58732 -1.62266,26.36919 -0.14881,1.96572 -0.29175,3.93044 -0.39888,5.89893 -0.21505,3.92435 -0.57907,7.80214 -1.0697,11.70057 -0.0285,0.22716 -0.057,0.45431 -0.0864,0.68834 -0.30481,2.40671 -0.62794,4.80298 -1.10421,7.18302 -0.43657,0.0873 -0.87313,0.17462 -1.32292,0.26458 -3.68758,-5.53136 -2.93702,-15.88703 -3.28799,-22.23414 -0.0712,-1.26856 -0.1473,-2.53681 -0.22322,-3.8051 -0.74157,-12.42391 -1.29034,-24.85755 -1.80503,-37.29261 -0.42904,-10.3614 -0.95699,-20.71788 -1.4959,-31.07407 -0.11236,-2.15977 -0.22355,-4.3196 -0.33321,-6.47952 -0.079,-1.55375 -0.15937,-3.10743 -0.24072,-4.66107 -0.0478,-0.91307 -0.095,-1.82615 -0.14068,-2.73933 -0.34504,-6.85324 -0.93382,-13.67396 -1.78328,-20.48356 -0.0707,-0.5711 -0.14106,-1.14225 -0.21047,-1.71351 -0.0606,-0.49887 -0.12254,-0.9976 -0.18453,-1.4963 -0.0735,-0.73206 -0.12256,-1.43003 -0.0846,-2.16454 0.0873,-0.0873 0.17462,-0.17462 0.26458,-0.26458 z"
     fill="#96d157"
     id="path4"
     style="fill:#000000;stroke-width:0.264583"
     clip-path="url(#clipPath275)"
     transform="matrix(0.52886613,0,0,0.52223848,-24.425856,-14.350836)" />
</svg>
