<?xml version="1.0" encoding="UTF-8" standalone="no"?>
<!-- Created with Inkscape (http://www.inkscape.org/) -->

<svg
   width="297mm"
   height="210mm"
   viewBox="0 0 1122.5197 793.70081"
   version="1.1"
   id="schematic-window"
   xml:space="preserve"
   sodipodi:docname="Metal-Rod.svg"
   inkscape:version="1.4 (86a8ad7, 2024-10-11)"
   xmlns:inkscape="http://www.inkscape.org/namespaces/inkscape"
   xmlns:sodipodi="http://sodipodi.sourceforge.net/DTD/sodipodi-0.dtd"
   xmlns:xlink="http://www.w3.org/1999/xlink"
   xmlns="http://www.w3.org/2000/svg"
   xmlns:svg="http://www.w3.org/2000/svg"><sodipodi:namedview
     id="namedview1"
     pagecolor="#ffffff"
     bordercolor="#999999"
     borderopacity="1"
     inkscape:showpageshadow="2"
     inkscape:pageopacity="0"
     inkscape:pagecheckerboard="0"
     inkscape:deskcolor="#d1d1d1"
     inkscape:document-units="mm"
     inkscape:zoom="0.77864522"
     inkscape:cx="486.10072"
     inkscape:cy="286.39487"
     inkscape:window-width="1920"
     inkscape:window-height="1057"
     inkscape:window-x="-8"
     inkscape:window-y="-8"
     inkscape:window-maximized="1"
     inkscape:current-layer="layer1" /><defs
     id="defs1"><linearGradient
       id="linearGradient22"
       inkscape:collect="always"><stop
         style="stop-color:#6e6e6e;stop-opacity:1;"
         offset="0"
         id="stop23" /><stop
         style="stop-color:#8e8e8e;stop-opacity:1;"
         offset="0.5"
         id="stop25" /><stop
         style="stop-color:#656565;stop-opacity:1;"
         offset="1"
         id="stop24" /></linearGradient><linearGradient
       id="linearGradient18"
       inkscape:collect="always"><stop
         style="stop-color:#969696;stop-opacity:1;"
         offset="0"
         id="stop18" /><stop
         style="stop-color:#989898;stop-opacity:1;"
         offset="0.20980819"
         id="stop20" /><stop
         style="stop-color:#757575;stop-opacity:1;"
         offset="0.52674913"
         id="stop21" /><stop
         style="stop-color:#919191;stop-opacity:1;"
         offset="0.80065632"
         id="stop22" /><stop
         style="stop-color:#707070;stop-opacity:1;"
         offset="1"
         id="stop19" /></linearGradient><linearGradient
       id="linearGradient5"
       inkscape:collect="always"><stop
         style="stop-color:#707070;stop-opacity:1;"
         offset="0"
         id="stop6" /><stop
         style="stop-color:#353535;stop-opacity:1;"
         offset="0.5"
         id="stop8" /><stop
         style="stop-color:#a0a0a0;stop-opacity:1;"
         offset="0.625"
         id="stop10" /><stop
         style="stop-color:#414141;stop-opacity:1;"
         offset="0.75"
         id="stop9" /><stop
         style="stop-color:#656565;stop-opacity:1;"
         offset="1"
         id="stop7" /></linearGradient><linearGradient
       inkscape:collect="always"
       xlink:href="#linearGradient5"
       id="linearGradient7"
       x1="605.19108"
       y1="35.979588"
       x2="681.08089"
       y2="35.979588"
       gradientUnits="userSpaceOnUse"
       gradientTransform="matrix(0.95595966,0,0,0.94166999,68.961135,-12.092105)" /><clipPath
       clipPathUnits="userSpaceOnUse"
       id="clipPath102"><path
         id="path103"
         style="fill:#ff0000;fill-opacity:1;fill-rule:nonzero;stroke:none;stroke-width:1.00047"
         d="M 162.177,345.01236 -38.621301,615.48811 c 0.05708,0.77854 1.121275,-0.70459 1.3649,-0.45912 0.04789,0.0486 0.06362,0.16465 0.03376,0.37821 -0.0068,0.0488 -0.0094,0.0992 -0.01915,0.14737 -0.05991,0.29816 -0.262019,0.60822 -0.415902,0.86238 -0.307657,0.49783 -0.64111,0.97894 -0.970663,1.46186 -0.279775,0.41688 -0.56084,0.83146 -0.849147,1.24234 -0.187694,0.26628 -0.379568,0.53078 -0.570498,0.79469 -0.01119,0.0161 -0.02491,0.0302 -0.03665,0.046 0.146967,0.25316 0.130607,0.64844 -0.190797,1.08137 -0.0096,0.0129 -0.02054,0.0261 -0.02938,0.0396 -0.06209,0.0954 -0.113663,0.21078 -0.163107,0.31168 -0.100359,0.20497 -0.239714,0.49844 -0.333927,0.69614 -0.313483,0.66972 -0.636904,1.33498 -0.96399,1.99806 -0.01705,0.0421 -0.03361,0.0834 -0.05533,0.12699 -0.12603,0.25468 -0.249183,0.5111 -0.346834,0.77918 -0.04883,0.13405 -0.09153,0.26993 -0.137396,0.40513 -0.358238,1.15596 -0.679832,2.32442 -1.032153,3.4824 -0.2409,0.77734 -0.49902,1.54952 -0.793241,2.30668 -0.164951,0.4245 -0.221268,0.55151 -0.395817,0.96341 -0.127855,0.29262 -0.26635,0.57985 -0.401181,0.86882 0.02484,0.004 0.04801,0.0117 0.06895,0.0287 0.07779,0.0629 0.124276,0.22537 0.12932,0.53192 0.0061,0.37119 -0.07414,0.73352 -0.143672,1.09343 -0.204127,1.00025 -0.3654,2.00969 -0.531398,3.01809 -0.08478,0.53386 -0.195203,1.06268 -0.297628,1.59309 0.279767,0.23346 0.482953,0.67225 0.468074,1.31381 -0.0099,0.4284 -0.02292,0.85571 -0.03405,1.28405 -0.02823,0.7583 -0.05183,1.51675 -0.07742,2.27519 -0.03216,0.71676 -0.08063,1.43163 -0.164175,2.14248 -0.02262,0.16718 -0.05356,0.33299 -0.07856,0.49992 0.170548,0.24141 0.298119,0.57408 0.343448,1.00217 0.04322,0.40829 0.07607,0.81677 0.09928,1.22596 0.02755,0.49038 0.03802,0.98201 0.09013,1.47149 0.05117,0.39221 0.118588,0.78121 0.156934,1.17458 0.0553,0.55322 0.05309,1.10783 0.05163,1.66129 0.113962,0.59149 0.221516,1.1839 0.351561,1.77291 0.08188,0.37724 0.178593,0.75181 0.270045,1.12731 0.03865,0.0221 0.07635,0.0471 0.114834,0.0752 0.203041,0.14968 0.403977,0.38044 0.580722,0.70884 0.190832,0.35448 0.372445,0.71588 0.540915,1.08104 0.18916,0.44473 0.395066,0.88261 0.564598,1.33486 0.110249,0.26669 0.124333,0.55067 0.158726,0.8306 0.02008,0.16352 0.03077,0.19839 0.06317,0.36486 0.13638,0.58475 0.343216,1.1514 0.556057,1.71422 0.04727,0.12147 0.09667,0.24295 0.143952,0.36443 0.186639,0.47915 0.17778,0.86067 0.08432,1.15742 0.09248,0.22099 0.189327,0.44072 0.285257,0.66016 0.09083,0.18999 0.163807,0.38577 0.245114,0.57958 0.13373,0.29911 0.306637,0.57954 0.484582,0.85477 0.310802,0.47816 0.657321,0.93288 1.005499,1.38469 0.499226,0.65104 1.057499,1.25206 1.610529,1.85715 0.45454,0.48832 0.900144,0.98615 1.350542,1.47826 0.229715,0.23377 0.435474,0.48576 0.633267,0.74643 0.02528,0.0334 0.05096,0.0676 0.07623,0.10096 0.341271,0.45085 0.458606,0.86704 0.426181,1.19616 L 317.93379,941.62363 544.68342,636.19138 Z m -201.992438,272.08426 -0.917353,1.23567 c 0.01132,0.0184 0.02054,0.0381 0.02979,0.0584 0.02407,-0.034 0.04933,-0.0674 0.07296,-0.10164 0.276686,-0.39422 0.545835,-0.79275 0.814597,-1.19244 z m -6.776195,9.12756 -0.780661,1.05154 c 0.362233,-0.15308 0.599586,-0.61435 0.780661,-1.05154 z m -2.744154,3.69637 -15.236843,20.52406 23.456334,17.85589 c -0.32529,-0.42504 -0.646887,-0.85299 -0.937621,-1.30203 -0.173006,-0.26947 -0.338103,-0.54425 -0.484548,-0.82855 -0.373217,-0.006 -0.793172,-0.17158 -1.17061,-0.76488 -0.142275,-0.22366 -0.238495,-0.47089 -0.365958,-0.70254 -0.410385,0.38463 -1.202264,0.24688 -1.738888,-0.74494 -0.121884,-0.22525 -0.241674,-0.45084 -0.337643,-0.68813 -0.07494,-0.19269 -0.119818,-0.31265 -0.170544,-0.46327 -0.581005,0.0226 -1.251695,-0.25263 -1.781444,-1.2394 -0.132453,-0.24675 -0.260415,-0.4954 -0.377479,-0.74941 -0.176962,-0.37836 -0.339412,-0.76256 -0.472115,-1.15729 -0.105184,-0.33334 -0.198541,-0.66958 -0.291951,-1.00585 -0.103154,-0.3166 -0.247525,-0.61809 -0.362305,-0.93079 -0.148094,-0.38277 -0.301201,-0.76335 -0.441967,-1.14863 -0.184313,-0.50091 -0.375197,-0.99999 -0.53583,-1.50827 -0.164229,-0.57083 -0.30536,-1.14831 -0.377122,-1.7352 -0.07621,-0.56308 -0.1452,-1.12597 -0.208273,-1.69002 -0.290386,-0.33142 -0.526686,-0.81354 -0.605557,-1.4899 -0.06838,-0.5873 -0.111533,-1.1765 -0.162535,-1.76477 -0.05189,-0.73456 -0.06837,-1.46998 0.0059,-2.19862 0.01821,-0.14711 0.02918,-0.29521 0.05217,-0.4414 0.0584,-0.36998 0.189418,-0.71821 0.301731,-1.07315 0.0025,-0.0151 0.0013,-0.032 0.0035,-0.0474 0.05709,-0.37878 0.111502,-0.75954 0.177997,-1.13637 7.18e-4,-0.004 0.0035,0.009 0.0047,0.0133 0.02483,0.12512 0.05288,0.23069 0.08561,0.32478 0.08756,-0.22657 0.170778,-0.45643 0.290534,-0.66723 0.07562,-0.16828 0.100961,-0.34859 0.122644,-0.53304 0.01366,-0.13678 0.02498,-0.27433 0.03495,-0.41165 -0.816227,0.0266 -1.582813,-0.74692 -1.288276,-2.2978 0.156362,-0.82337 0.339513,-1.6394 0.555941,-2.44683 0.453738,-1.75485 0.939532,-3.50251 1.511391,-5.21833 0.255903,-0.77444 0.510047,-1.55011 0.743968,-2.33228 z" /></clipPath><clipPath
       clipPathUnits="userSpaceOnUse"
       id="clipPath9"><path
         id="path10"
         style="fill:#ff0000;fill-opacity:1;fill-rule:nonzero;stroke:none;stroke-width:0.971332"
         d="M 291.95344,188.44603 52.39896,425.87154 295.40982,735.64518 312.83371,718.37614 c -0.47101,0.20806 -0.83733,-0.28402 -0.39252,-1.09795 0.21946,-0.40158 0.45447,-0.79447 0.69557,-1.18341 4.3e-4,-0.0862 0.009,-0.18026 0.0265,-0.28315 0.0478,-0.28063 0.0214,-0.13632 0.0783,-0.42838 0.0799,-0.35106 0.15947,-0.74232 0.43302,-1.00964 l -10e-4,-10e-4 c 0.0945,-0.0924 0.16901,-0.0945 0.25705,-0.15107 0.239,-0.40542 0.60343,-0.49638 0.80665,-0.26594 0.0851,0.0966 0.14274,0.24923 0.15014,0.45882 0.0348,6.3e-4 0.075,-0.007 0.0967,0.0177 0.15789,0.17964 0.1621,0.5568 -0.13431,1.03717 -0.055,0.0891 -0.11885,0.17167 -0.17931,0.25676 -0.0117,0.0555 -0.0238,0.11061 -0.0355,0.16607 -0.062,0.30265 -0.13141,0.60341 -0.20731,0.90449 L 534.96422,498.21959 Z" /></clipPath><linearGradient
       inkscape:collect="always"
       xlink:href="#linearGradient18"
       id="linearGradient19"
       x1="291.55856"
       y1="605.95563"
       x2="290.75162"
       y2="679.02893"
       gradientUnits="userSpaceOnUse" /><linearGradient
       inkscape:collect="always"
       xlink:href="#linearGradient22"
       id="linearGradient24"
       x1="627.53757"
       y1="-3.1078744"
       x2="700.07302"
       y2="-3.1078744"
       gradientUnits="userSpaceOnUse"
       gradientTransform="translate(19.967995,24.896665)" /></defs><g
     inkscape:label="图层 1"
     inkscape:groupmode="layer"
     id="layer1"><rect
       style="fill:url(#linearGradient19);fill-rule:evenodd;stroke-width:2.44868;stroke-linejoin:bevel"
       id="rect1"
       width="580.87323"
       height="72.193764"
       x="-50.381561"
       y="607.22095"
       ry="36.096882"
       transform="matrix(0.80104358,-0.62423966,0.59468617,0.82003018,5.9191371,34.575902)"
       clip-path="url(#clipPath102)" /><ellipse
       style="fill:url(#linearGradient24);fill-rule:evenodd;stroke:url(#linearGradient7);stroke-width:1.61123;stroke-linejoin:bevel;stroke-opacity:1"
       id="path1"
       cx="683.77325"
       cy="21.78879"
       rx="35.462109"
       ry="23.085928"
       transform="matrix(0.56752984,0.82335283,-0.81627023,0.57767025,0,0)" /></g></svg>
