<?xml version="1.0" encoding="UTF-8" standalone="no"?>
<!-- Created with Inkscape (http://www.inkscape.org/) -->

<svg
   width="297mm"
   height="210mm"
   viewBox="0 0 1122.5197 793.70081"
   version="1.1"
   id="schematic-component"
   xml:space="preserve"
   xmlns="http://www.w3.org/2000/svg"
   xmlns:svg="http://www.w3.org/2000/svg"><defs
     id="defs1" /><g
     id="layer1"><g
       id="g22"><path
         style="fill:#e03a25;fill-opacity:0;fill-rule:evenodd;stroke:#e03a24;stroke-width:9.75616;stroke-linejoin:bevel;stroke-dasharray:none;stroke-opacity:1"
         d="M 42.654273,398.91551 C 69.469871,116.45418 107.37062,2.7755873 130.53021,140.36942 c 24.24926,144.06767 27.71755,165.26293 37.66112,258.54609"
         id="path16" /><path
         style="fill:#e03a25;fill-opacity:0;fill-rule:evenodd;stroke:#e03a24;stroke-width:9.75616;stroke-linejoin:bevel;stroke-dasharray:none;stroke-opacity:1"
         d="M 42.941282,397.65703 C 69.70922,677.38694 107.54264,789.96625 130.66107,653.70296 154.86725,511.02843 158.32939,490.03813 168.25528,397.65703"
         id="path16-8" /><path
         style="fill:#e03a25;fill-opacity:0;fill-rule:evenodd;stroke:#e03a24;stroke-width:9.31835;stroke-linejoin:bevel;stroke-dasharray:none;stroke-opacity:1"
         d="m 173.56773,403.80387 c 26.89255,-256.94314 64.90207,-360.35176 88.12813,-235.18845 24.31884,131.05227 27.7971,150.33269 37.7692,235.18845"
         id="path16-4" /><path
         style="fill:#e03a25;fill-opacity:0;fill-rule:evenodd;stroke:#e03a24;stroke-width:9.31835;stroke-linejoin:bevel;stroke-dasharray:none;stroke-opacity:1"
         d="m 173.85555,402.65908 c 26.84476,254.45848 64.78677,356.86713 87.97154,232.91417 24.27565,-129.785 27.74773,-148.87899 37.70211,-232.91417"
         id="path16-8-2" /><path
         style="fill:#e03a25;fill-opacity:0;fill-rule:evenodd;stroke:#e03a24;stroke-width:8.93952;stroke-linejoin:bevel;stroke-dasharray:none;stroke-opacity:1"
         d="m 304.68512,401.29252 c 26.95923,-235.89128 65.06299,-330.827417 88.34663,-215.91899 24.37914,120.31489 27.86602,138.01563 37.86285,215.91899"
         id="path16-4-1" /><path
         style="fill:#e03a25;fill-opacity:0;fill-rule:evenodd;stroke:#e03a24;stroke-width:8.93952;stroke-linejoin:bevel;stroke-dasharray:none;stroke-opacity:1"
         d="m 304.97366,400.24152 c 26.91132,233.6102 64.9474,327.62829 88.18966,213.83105 24.33583,-119.15145 27.81652,-136.68103 37.79558,-213.83105"
         id="path16-8-2-6" /><path
         style="fill:#e03a25;fill-opacity:0;fill-rule:evenodd;stroke:#e03a24;stroke-width:8.75865;stroke-linejoin:bevel;stroke-dasharray:none;stroke-opacity:1"
         d="m 435.6404,388.69454 c 26.99105,-226.17822 65.13979,-317.20527 88.45091,-207.02831 24.40791,115.36082 27.89891,132.33271 37.90753,207.02831"
         id="path16-4-6" /><path
         style="fill:#e03a25;fill-opacity:0;fill-rule:evenodd;stroke:#e03a24;stroke-width:8.75865;stroke-linejoin:bevel;stroke-dasharray:none;stroke-opacity:1"
         d="m 435.92928,387.68682 c 26.94308,223.99109 65.02405,314.13791 88.29375,205.02637 24.36455,-114.2453 27.84935,-131.05307 37.84019,-205.02637"
         id="path16-8-2-1" /><path
         style="fill:#e03a25;fill-opacity:0;fill-rule:evenodd;stroke:#e03a24;stroke-width:9.75616;stroke-linejoin:bevel;stroke-dasharray:none;stroke-opacity:1"
         d="M 1088.6426,397.66539 C 1061.827,115.20406 1023.9262,1.5254701 1000.7666,139.1193 976.51742,283.18697 973.04912,304.38223 963.10552,397.66539"
         id="path16-9" /><path
         style="fill:#e03a25;fill-opacity:0;fill-rule:evenodd;stroke:#e03a24;stroke-width:9.75616;stroke-linejoin:bevel;stroke-dasharray:none;stroke-opacity:1"
         d="m 1088.3556,396.40691 c -26.768,279.72991 -64.6014,392.30922 -87.7198,256.04593 C 976.42962,509.77831 972.96752,488.78801 963.04162,396.40691"
         id="path16-8-8" /><path
         style="fill:#e03a25;fill-opacity:0;fill-rule:evenodd;stroke:#e03a24;stroke-width:9.31835;stroke-linejoin:bevel;stroke-dasharray:none;stroke-opacity:1"
         d="M 957.72912,402.55375 C 930.8366,145.61061 892.82708,42.201993 869.60102,167.3653 c -24.31884,131.05227 -27.7971,150.33269 -37.7692,235.18845"
         id="path16-4-65" /><path
         style="fill:#e03a25;fill-opacity:0;fill-rule:evenodd;stroke:#e03a24;stroke-width:9.31835;stroke-linejoin:bevel;stroke-dasharray:none;stroke-opacity:1"
         d="M 957.44132,401.40896 C 930.59657,655.86744 892.65456,758.27609 869.46979,634.32313 845.19414,504.53813 841.72206,485.44414 831.76768,401.40896"
         id="path16-8-2-0" /><path
         style="fill:#e03a25;fill-opacity:0;fill-rule:evenodd;stroke:#e03a24;stroke-width:8.93952;stroke-linejoin:bevel;stroke-dasharray:none;stroke-opacity:1"
         d="M 826.61176,400.0424 C 799.65253,164.15112 761.54877,69.214987 738.26513,184.12341 713.88599,304.4383 710.39911,322.13904 700.40226,400.0424"
         id="path16-4-1-2" /><path
         style="fill:#e03a25;fill-opacity:0;fill-rule:evenodd;stroke:#e03a24;stroke-width:8.93952;stroke-linejoin:bevel;stroke-dasharray:none;stroke-opacity:1"
         d="M 826.32322,398.9914 C 799.4119,632.6016 761.37582,726.61969 738.13356,612.82245 713.79773,493.671 710.31704,476.14142 700.33796,398.9914"
         id="path16-8-2-6-8" /><path
         style="fill:#e03a25;fill-opacity:0;fill-rule:evenodd;stroke:#e03a24;stroke-width:8.75865;stroke-linejoin:bevel;stroke-dasharray:none;stroke-opacity:1"
         d="m 695.65646,387.44442 c -26.991,-226.17822 -65.1398,-317.205263 -88.4509,-207.02831 -24.4079,115.36082 -27.8989,132.33271 -37.9075,207.02831"
         id="path16-4-6-6" /><path
         style="fill:#e03a25;fill-opacity:0;fill-rule:evenodd;stroke:#e03a24;stroke-width:8.75865;stroke-linejoin:bevel;stroke-dasharray:none;stroke-opacity:1"
         d="m 695.36756,386.4367 c -26.943,223.99109 -65.024,314.13791 -88.2937,205.02637 C 582.70926,477.21777 579.22446,460.41 569.23366,386.4367"
         id="path16-8-2-1-0" /></g></g></svg>
